M48
;GenerationSoftware,Autodesk,EAGLE,9.2.2*%
;CreationDate,2019-02-06T16:01:28Z*%
FMAT,2
ICI,OFF
METRIC,TZ,000.000
T2C0.254
T1C1.600
%
G90
M71
T1
X31960Y44850
X37040Y44850
T2
X34569Y32817
X35535Y32817
X36525Y32842
X34569Y31242
X35560Y31242
X36525Y31242
X35052Y28829
X33706Y28499
X37287Y34773
X39421Y40157
X37897Y38049
X37897Y39649
X39243Y38811
X39751Y43205
X37313Y40894
X39065Y41554
X37465Y42393
X36093Y41758
X33147Y27254
X32944Y29464
X42342Y31344
X43459Y33096
X39548Y36881
X32842Y36703
X38913Y33020
X38887Y28931
M30