G04 EAGLE Gerber RS-274X export*
G75*
%MOMM*%
%FSLAX34Y34*%
%LPD*%
%INTop Copper*%
%IPPOS*%
%AMOC8*
5,1,8,0,0,1.08239X$1,22.5*%
G01*
%ADD10C,1.000000*%
%ADD11R,1.100000X1.000000*%
%ADD12C,2.600000*%
%ADD13R,2.600000X2.600000*%
%ADD14R,1.900000X3.400000*%
%ADD15R,0.850000X0.350000*%
%ADD16R,0.350000X0.850000*%
%ADD17R,2.700000X2.700000*%
%ADD18R,1.700000X2.000000*%
%ADD19R,1.600000X2.700000*%
%ADD20R,0.900000X0.700000*%
%ADD21R,0.700000X0.900000*%
%ADD22C,0.660400*%
%ADD23C,0.508000*%
%ADD24C,0.381000*%
%ADD25C,0.254000*%
%ADD26C,0.635000*%
%ADD27C,0.304800*%

G36*
X278630Y195708D02*
X278630Y195708D01*
X278658Y195706D01*
X278726Y195728D01*
X278797Y195742D01*
X278820Y195758D01*
X278847Y195767D01*
X278902Y195814D01*
X278961Y195855D01*
X278976Y195879D01*
X278998Y195897D01*
X279029Y195962D01*
X279068Y196022D01*
X279073Y196050D01*
X279085Y196076D01*
X279094Y196177D01*
X279101Y196219D01*
X279099Y196229D01*
X279100Y196242D01*
X279043Y196957D01*
X413361Y196957D01*
X413304Y196242D01*
X413308Y196213D01*
X413303Y196185D01*
X413320Y196116D01*
X413328Y196044D01*
X413343Y196020D01*
X413349Y195992D01*
X413392Y195934D01*
X413428Y195872D01*
X413450Y195855D01*
X413467Y195832D01*
X413529Y195795D01*
X413586Y195752D01*
X413614Y195745D01*
X413638Y195730D01*
X413738Y195714D01*
X413779Y195703D01*
X413789Y195705D01*
X413802Y195703D01*
X432802Y195703D01*
X432878Y195718D01*
X432956Y195727D01*
X432975Y195738D01*
X432997Y195742D01*
X433061Y195786D01*
X433129Y195825D01*
X433145Y195844D01*
X433161Y195855D01*
X433185Y195893D01*
X433235Y195953D01*
X442735Y212453D01*
X442744Y212480D01*
X442760Y212504D01*
X442775Y212574D01*
X442798Y212642D01*
X442795Y212670D01*
X442801Y212698D01*
X442788Y212769D01*
X442782Y212840D01*
X442769Y212865D01*
X442763Y212893D01*
X442723Y212953D01*
X442690Y213016D01*
X442668Y213034D01*
X442652Y213058D01*
X442569Y213116D01*
X442537Y213143D01*
X442526Y213146D01*
X442516Y213153D01*
X441888Y213450D01*
X509010Y329711D01*
X509618Y329291D01*
X509645Y329280D01*
X509667Y329261D01*
X509736Y329241D01*
X509801Y329213D01*
X509830Y329213D01*
X509858Y329205D01*
X509929Y329213D01*
X510000Y329213D01*
X510027Y329224D01*
X510056Y329227D01*
X510118Y329262D01*
X510183Y329290D01*
X510204Y329310D01*
X510229Y329325D01*
X510292Y329402D01*
X510322Y329432D01*
X510326Y329442D01*
X510335Y329453D01*
X519835Y345953D01*
X519845Y345985D01*
X519854Y345998D01*
X519858Y346022D01*
X519859Y346026D01*
X519890Y346096D01*
X519890Y346120D01*
X519898Y346142D01*
X519892Y346218D01*
X519893Y346295D01*
X519883Y346319D01*
X519882Y346340D01*
X519861Y346379D01*
X519835Y346451D01*
X510335Y362951D01*
X510316Y362973D01*
X510303Y362999D01*
X510250Y363047D01*
X510203Y363100D01*
X510177Y363113D01*
X510156Y363132D01*
X510088Y363155D01*
X510024Y363186D01*
X509995Y363188D01*
X509968Y363197D01*
X509896Y363192D01*
X509825Y363195D01*
X509798Y363185D01*
X509769Y363183D01*
X509679Y363141D01*
X509639Y363126D01*
X509631Y363119D01*
X509618Y363113D01*
X509010Y362693D01*
X441888Y478954D01*
X442516Y479251D01*
X442538Y479268D01*
X442565Y479278D01*
X442617Y479327D01*
X442675Y479370D01*
X442689Y479395D01*
X442710Y479414D01*
X442739Y479480D01*
X442775Y479542D01*
X442778Y479570D01*
X442790Y479596D01*
X442791Y479668D01*
X442800Y479739D01*
X442792Y479766D01*
X442793Y479795D01*
X442757Y479890D01*
X442746Y479930D01*
X442739Y479939D01*
X442735Y479951D01*
X433235Y496451D01*
X433183Y496510D01*
X433137Y496572D01*
X433118Y496583D01*
X433103Y496600D01*
X433033Y496634D01*
X432966Y496674D01*
X432942Y496678D01*
X432924Y496686D01*
X432879Y496688D01*
X432802Y496701D01*
X413802Y496701D01*
X413774Y496696D01*
X413746Y496698D01*
X413678Y496676D01*
X413607Y496662D01*
X413584Y496646D01*
X413557Y496637D01*
X413502Y496590D01*
X413443Y496549D01*
X413428Y496525D01*
X413407Y496507D01*
X413375Y496442D01*
X413336Y496382D01*
X413331Y496354D01*
X413319Y496328D01*
X413310Y496227D01*
X413303Y496185D01*
X413305Y496175D01*
X413304Y496162D01*
X413361Y495447D01*
X279043Y495447D01*
X279100Y496162D01*
X279096Y496191D01*
X279101Y496219D01*
X279084Y496288D01*
X279076Y496360D01*
X279062Y496384D01*
X279055Y496412D01*
X279012Y496470D01*
X278977Y496532D01*
X278954Y496549D01*
X278937Y496572D01*
X278875Y496609D01*
X278818Y496652D01*
X278790Y496659D01*
X278766Y496674D01*
X278666Y496690D01*
X278625Y496701D01*
X278615Y496699D01*
X278602Y496701D01*
X259602Y496701D01*
X259526Y496686D01*
X259448Y496677D01*
X259429Y496666D01*
X259407Y496662D01*
X259343Y496618D01*
X259275Y496579D01*
X259259Y496560D01*
X259243Y496549D01*
X259219Y496511D01*
X259169Y496451D01*
X249669Y479951D01*
X249660Y479924D01*
X249644Y479900D01*
X249629Y479830D01*
X249606Y479762D01*
X249609Y479734D01*
X249603Y479706D01*
X249617Y479636D01*
X249622Y479564D01*
X249635Y479539D01*
X249641Y479511D01*
X249681Y479451D01*
X249714Y479388D01*
X249736Y479370D01*
X249752Y479346D01*
X249835Y479288D01*
X249867Y479261D01*
X249878Y479258D01*
X249889Y479251D01*
X250516Y478954D01*
X183394Y362693D01*
X182786Y363113D01*
X182759Y363124D01*
X182737Y363143D01*
X182668Y363163D01*
X182603Y363191D01*
X182574Y363191D01*
X182546Y363199D01*
X182475Y363191D01*
X182404Y363192D01*
X182377Y363180D01*
X182348Y363177D01*
X182286Y363142D01*
X182221Y363114D01*
X182200Y363094D01*
X182175Y363079D01*
X182112Y363002D01*
X182082Y362972D01*
X182078Y362962D01*
X182069Y362951D01*
X172569Y346451D01*
X172545Y346378D01*
X172514Y346308D01*
X172514Y346284D01*
X172506Y346262D01*
X172513Y346186D01*
X172512Y346109D01*
X172521Y346085D01*
X172522Y346064D01*
X172543Y346025D01*
X172562Y345973D01*
X172563Y345967D01*
X172565Y345965D01*
X172569Y345953D01*
X182069Y329453D01*
X182088Y329431D01*
X182101Y329405D01*
X182154Y329357D01*
X182201Y329304D01*
X182227Y329291D01*
X182249Y329272D01*
X182316Y329249D01*
X182380Y329218D01*
X182409Y329217D01*
X182436Y329207D01*
X182508Y329212D01*
X182579Y329209D01*
X182606Y329219D01*
X182635Y329221D01*
X182725Y329263D01*
X182765Y329278D01*
X182773Y329285D01*
X182786Y329291D01*
X183394Y329711D01*
X250516Y213450D01*
X249889Y213153D01*
X249866Y213136D01*
X249839Y213126D01*
X249787Y213077D01*
X249729Y213034D01*
X249715Y213009D01*
X249694Y212990D01*
X249665Y212924D01*
X249629Y212862D01*
X249626Y212834D01*
X249614Y212808D01*
X249613Y212736D01*
X249604Y212665D01*
X249612Y212638D01*
X249612Y212609D01*
X249647Y212514D01*
X249658Y212474D01*
X249665Y212465D01*
X249669Y212453D01*
X259169Y195953D01*
X259221Y195895D01*
X259267Y195832D01*
X259286Y195821D01*
X259301Y195804D01*
X259371Y195770D01*
X259438Y195730D01*
X259463Y195726D01*
X259480Y195718D01*
X259525Y195716D01*
X259602Y195703D01*
X278602Y195703D01*
X278630Y195708D01*
G37*
%LPC*%
G36*
X267224Y230504D02*
X267224Y230504D01*
X265810Y231918D01*
X265810Y283448D01*
X266580Y284218D01*
X266581Y284233D01*
X266580Y284233D01*
X266580Y284234D01*
X265302Y285512D01*
X265302Y329168D01*
X266716Y330582D01*
X273672Y330582D01*
X273684Y330592D01*
X273683Y330593D01*
X273684Y330594D01*
X273684Y334273D01*
X274059Y334648D01*
X274060Y334649D01*
X274060Y334653D01*
X274062Y334654D01*
X274064Y334656D01*
X274061Y334660D01*
X274061Y334665D01*
X274060Y334665D01*
X274060Y334666D01*
X273430Y335296D01*
X273430Y472932D01*
X274844Y474346D01*
X348472Y474346D01*
X348721Y474097D01*
X348737Y474096D01*
X348737Y474097D01*
X348738Y474097D01*
X348987Y474346D01*
X352055Y474346D01*
X352059Y474349D01*
X352064Y474349D01*
X352568Y474854D01*
X406384Y474854D01*
X407798Y473440D01*
X407798Y378476D01*
X406384Y377062D01*
X382369Y377062D01*
X382365Y377059D01*
X382361Y377059D01*
X381385Y376083D01*
X381385Y376078D01*
X381382Y376075D01*
X381382Y340376D01*
X379968Y338962D01*
X372758Y338962D01*
X372746Y338952D01*
X372747Y338951D01*
X372746Y338950D01*
X372746Y334788D01*
X371332Y333374D01*
X370537Y333374D01*
X370525Y333364D01*
X370526Y333363D01*
X370525Y333362D01*
X370525Y333037D01*
X370535Y333025D01*
X370536Y333026D01*
X370537Y333025D01*
X374208Y333025D01*
X374212Y333028D01*
X374217Y333028D01*
X388290Y347101D01*
X389678Y348489D01*
X389678Y348495D01*
X389681Y348498D01*
X389681Y349974D01*
X390574Y350867D01*
X400838Y350867D01*
X401731Y349974D01*
X401731Y341710D01*
X400838Y340817D01*
X390634Y340817D01*
X390629Y340814D01*
X390625Y340814D01*
X381028Y331217D01*
X381028Y331211D01*
X381025Y331208D01*
X381025Y327368D01*
X380165Y326508D01*
X380164Y326505D01*
X380164Y326504D01*
X380164Y326503D01*
X380164Y326493D01*
X380165Y326493D01*
X380165Y326492D01*
X380608Y326048D01*
X380614Y326048D01*
X380616Y326045D01*
X380761Y326045D01*
X380766Y326048D01*
X380770Y326048D01*
X384298Y329576D01*
X384298Y329580D01*
X384299Y329581D01*
X384298Y329582D01*
X384301Y329585D01*
X384301Y332199D01*
X387129Y335027D01*
X389743Y335027D01*
X389748Y335030D01*
X389752Y335030D01*
X390764Y336043D01*
X407812Y336043D01*
X410429Y333425D01*
X410435Y333425D01*
X410437Y333422D01*
X410484Y333420D01*
X411245Y332609D01*
X411246Y332609D01*
X412033Y331822D01*
X412033Y331774D01*
X412036Y331770D01*
X412036Y331766D01*
X412495Y331276D01*
X412501Y331276D01*
X412504Y331273D01*
X418450Y331273D01*
X419343Y330380D01*
X419343Y320688D01*
X419353Y320676D01*
X419354Y320677D01*
X419355Y320676D01*
X428545Y320676D01*
X428557Y320686D01*
X428557Y320687D01*
X428557Y320688D01*
X428557Y326398D01*
X429450Y327291D01*
X430517Y327291D01*
X430529Y327301D01*
X430528Y327302D01*
X430529Y327303D01*
X430529Y328196D01*
X430526Y328200D01*
X430526Y328204D01*
X429767Y328963D01*
X429767Y332961D01*
X432595Y335789D01*
X436593Y335789D01*
X439421Y332961D01*
X439421Y328963D01*
X438662Y328204D01*
X438662Y328200D01*
X438661Y328199D01*
X438661Y328198D01*
X438659Y328196D01*
X438659Y327303D01*
X438669Y327291D01*
X438670Y327292D01*
X438671Y327291D01*
X439714Y327291D01*
X440607Y326398D01*
X440607Y318134D01*
X440059Y317587D01*
X440059Y317581D01*
X440056Y317578D01*
X440056Y313954D01*
X440059Y313949D01*
X440059Y313945D01*
X440607Y313398D01*
X440607Y305134D01*
X440038Y304566D01*
X440038Y304560D01*
X440035Y304557D01*
X440035Y299361D01*
X440045Y299349D01*
X440046Y299350D01*
X440047Y299349D01*
X440102Y299349D01*
X440995Y298456D01*
X440995Y288192D01*
X440102Y287299D01*
X431838Y287299D01*
X431487Y287651D01*
X431481Y287651D01*
X431478Y287654D01*
X427462Y287654D01*
X427457Y287651D01*
X427453Y287651D01*
X427102Y287299D01*
X418838Y287299D01*
X417945Y288192D01*
X417945Y288612D01*
X417935Y288624D01*
X417934Y288623D01*
X417933Y288624D01*
X408826Y288624D01*
X408814Y288614D01*
X408815Y288613D01*
X408814Y288612D01*
X408814Y231918D01*
X407400Y230504D01*
X267224Y230504D01*
G37*
%LPD*%
G36*
X339192Y327803D02*
X339192Y327803D01*
X339294Y327811D01*
X339322Y327823D01*
X339353Y327828D01*
X339445Y327872D01*
X339541Y327910D01*
X339564Y327930D01*
X339592Y327943D01*
X339667Y328013D01*
X339747Y328078D01*
X339764Y328104D01*
X339786Y328125D01*
X339837Y328214D01*
X339894Y328299D01*
X339900Y328323D01*
X339918Y328355D01*
X339976Y328615D01*
X339973Y328653D01*
X339978Y328676D01*
X339978Y335408D01*
X353314Y335408D01*
X353335Y335411D01*
X353356Y335409D01*
X353466Y335431D01*
X353577Y335448D01*
X353596Y335457D01*
X353616Y335461D01*
X353655Y335485D01*
X353816Y335563D01*
X353899Y335640D01*
X353942Y335668D01*
X354450Y336176D01*
X354463Y336193D01*
X354479Y336206D01*
X354541Y336300D01*
X354608Y336390D01*
X354615Y336410D01*
X354626Y336427D01*
X354636Y336472D01*
X354695Y336641D01*
X354699Y336754D01*
X354710Y336804D01*
X354710Y369824D01*
X354695Y369926D01*
X354687Y370028D01*
X354675Y370056D01*
X354670Y370087D01*
X354626Y370179D01*
X354588Y370275D01*
X354568Y370298D01*
X354555Y370326D01*
X354485Y370401D01*
X354420Y370481D01*
X354394Y370498D01*
X354373Y370520D01*
X354284Y370571D01*
X354199Y370628D01*
X354175Y370634D01*
X354143Y370652D01*
X353883Y370710D01*
X353845Y370707D01*
X353822Y370712D01*
X348360Y370712D01*
X348360Y471932D01*
X348345Y472034D01*
X348337Y472136D01*
X348325Y472164D01*
X348320Y472195D01*
X348276Y472287D01*
X348238Y472383D01*
X348218Y472406D01*
X348205Y472434D01*
X348135Y472509D01*
X348070Y472589D01*
X348044Y472606D01*
X348023Y472628D01*
X347934Y472679D01*
X347849Y472736D01*
X347825Y472742D01*
X347793Y472760D01*
X347533Y472818D01*
X347495Y472815D01*
X347472Y472820D01*
X275844Y472820D01*
X275742Y472805D01*
X275640Y472797D01*
X275612Y472785D01*
X275581Y472780D01*
X275489Y472736D01*
X275393Y472698D01*
X275370Y472678D01*
X275342Y472665D01*
X275267Y472595D01*
X275187Y472530D01*
X275170Y472504D01*
X275148Y472483D01*
X275097Y472394D01*
X275040Y472309D01*
X275034Y472285D01*
X275016Y472253D01*
X274958Y471993D01*
X274961Y471955D01*
X274956Y471932D01*
X274956Y336296D01*
X274971Y336194D01*
X274979Y336092D01*
X274991Y336064D01*
X274996Y336033D01*
X275040Y335941D01*
X275078Y335845D01*
X275098Y335822D01*
X275111Y335794D01*
X275181Y335719D01*
X275246Y335639D01*
X275272Y335622D01*
X275293Y335600D01*
X275382Y335549D01*
X275467Y335492D01*
X275491Y335486D01*
X275523Y335468D01*
X275783Y335410D01*
X275821Y335413D01*
X275844Y335408D01*
X303179Y335408D01*
X311051Y328028D01*
X311056Y328024D01*
X311060Y328019D01*
X311167Y327948D01*
X311269Y327877D01*
X311276Y327875D01*
X311281Y327872D01*
X311303Y327867D01*
X311523Y327798D01*
X311613Y327798D01*
X311658Y327788D01*
X339090Y327788D01*
X339192Y327803D01*
G37*
G36*
X406502Y232045D02*
X406502Y232045D01*
X406604Y232053D01*
X406632Y232065D01*
X406663Y232070D01*
X406755Y232114D01*
X406851Y232152D01*
X406874Y232172D01*
X406902Y232185D01*
X406977Y232255D01*
X407057Y232320D01*
X407074Y232346D01*
X407096Y232367D01*
X407147Y232456D01*
X407204Y232541D01*
X407210Y232565D01*
X407228Y232597D01*
X407286Y232857D01*
X407283Y232895D01*
X407288Y232918D01*
X407288Y297180D01*
X407273Y297282D01*
X407265Y297384D01*
X407253Y297412D01*
X407248Y297443D01*
X407204Y297535D01*
X407166Y297631D01*
X407146Y297654D01*
X407133Y297682D01*
X407063Y297757D01*
X406998Y297837D01*
X406972Y297854D01*
X406951Y297876D01*
X406862Y297927D01*
X406777Y297984D01*
X406753Y297990D01*
X406721Y298008D01*
X406461Y298066D01*
X406423Y298063D01*
X406400Y298068D01*
X391020Y298068D01*
X384676Y304412D01*
X384659Y304425D01*
X384646Y304441D01*
X384552Y304503D01*
X384462Y304570D01*
X384442Y304577D01*
X384425Y304588D01*
X384380Y304598D01*
X384211Y304657D01*
X384098Y304661D01*
X384048Y304672D01*
X364490Y304672D01*
X364388Y304657D01*
X364286Y304649D01*
X364258Y304637D01*
X364227Y304632D01*
X364135Y304588D01*
X364039Y304550D01*
X364016Y304530D01*
X363988Y304517D01*
X363913Y304447D01*
X363833Y304382D01*
X363816Y304356D01*
X363794Y304335D01*
X363743Y304246D01*
X363686Y304161D01*
X363680Y304137D01*
X363662Y304105D01*
X363604Y303845D01*
X363607Y303807D01*
X363602Y303784D01*
X363602Y292496D01*
X353991Y283871D01*
X353962Y283836D01*
X353927Y283808D01*
X353878Y283734D01*
X353822Y283666D01*
X353805Y283624D01*
X353780Y283587D01*
X353768Y283535D01*
X353721Y283420D01*
X353707Y283259D01*
X353696Y283210D01*
X353696Y264782D01*
X351168Y262254D01*
X328589Y262254D01*
X311583Y283011D01*
X311535Y283054D01*
X311494Y283105D01*
X311437Y283143D01*
X311386Y283189D01*
X311327Y283216D01*
X311273Y283252D01*
X311227Y283263D01*
X311145Y283301D01*
X310920Y283331D01*
X310896Y283336D01*
X268224Y283336D01*
X268122Y283321D01*
X268020Y283313D01*
X267992Y283301D01*
X267961Y283296D01*
X267869Y283252D01*
X267773Y283214D01*
X267750Y283194D01*
X267722Y283181D01*
X267647Y283111D01*
X267567Y283046D01*
X267550Y283020D01*
X267528Y282999D01*
X267477Y282910D01*
X267420Y282825D01*
X267414Y282801D01*
X267396Y282769D01*
X267338Y282509D01*
X267341Y282471D01*
X267336Y282448D01*
X267336Y232918D01*
X267351Y232816D01*
X267359Y232714D01*
X267371Y232686D01*
X267376Y232655D01*
X267420Y232563D01*
X267458Y232467D01*
X267478Y232444D01*
X267491Y232416D01*
X267561Y232341D01*
X267626Y232261D01*
X267652Y232244D01*
X267673Y232222D01*
X267762Y232171D01*
X267847Y232114D01*
X267871Y232108D01*
X267903Y232090D01*
X268163Y232032D01*
X268201Y232035D01*
X268224Y232030D01*
X406400Y232030D01*
X406502Y232045D01*
G37*
G36*
X370434Y334915D02*
X370434Y334915D01*
X370536Y334923D01*
X370564Y334935D01*
X370595Y334940D01*
X370687Y334984D01*
X370783Y335022D01*
X370806Y335042D01*
X370834Y335055D01*
X370909Y335125D01*
X370989Y335190D01*
X371006Y335216D01*
X371028Y335237D01*
X371079Y335326D01*
X371136Y335411D01*
X371142Y335435D01*
X371160Y335467D01*
X371218Y335727D01*
X371215Y335765D01*
X371220Y335788D01*
X371220Y340488D01*
X378968Y340488D01*
X379070Y340503D01*
X379172Y340511D01*
X379200Y340523D01*
X379231Y340528D01*
X379323Y340572D01*
X379419Y340610D01*
X379442Y340630D01*
X379470Y340643D01*
X379545Y340713D01*
X379625Y340778D01*
X379642Y340804D01*
X379664Y340825D01*
X379715Y340914D01*
X379772Y340999D01*
X379778Y341023D01*
X379796Y341055D01*
X379854Y341315D01*
X379851Y341353D01*
X379856Y341376D01*
X379856Y378588D01*
X405384Y378588D01*
X405486Y378603D01*
X405588Y378611D01*
X405616Y378623D01*
X405647Y378628D01*
X405739Y378672D01*
X405835Y378710D01*
X405858Y378730D01*
X405886Y378743D01*
X405961Y378813D01*
X406041Y378878D01*
X406058Y378904D01*
X406080Y378925D01*
X406131Y379014D01*
X406188Y379099D01*
X406194Y379123D01*
X406212Y379155D01*
X406270Y379415D01*
X406267Y379453D01*
X406272Y379476D01*
X406272Y472440D01*
X406257Y472542D01*
X406249Y472644D01*
X406237Y472672D01*
X406232Y472703D01*
X406188Y472795D01*
X406150Y472891D01*
X406130Y472914D01*
X406117Y472942D01*
X406047Y473017D01*
X405982Y473097D01*
X405956Y473114D01*
X405935Y473136D01*
X405846Y473187D01*
X405761Y473244D01*
X405737Y473250D01*
X405705Y473268D01*
X405445Y473326D01*
X405407Y473323D01*
X405384Y473328D01*
X353568Y473328D01*
X353466Y473313D01*
X353364Y473305D01*
X353336Y473293D01*
X353305Y473288D01*
X353213Y473244D01*
X353117Y473206D01*
X353094Y473186D01*
X353066Y473173D01*
X352991Y473103D01*
X352911Y473038D01*
X352894Y473012D01*
X352872Y472991D01*
X352821Y472902D01*
X352764Y472817D01*
X352758Y472793D01*
X352740Y472761D01*
X352682Y472501D01*
X352685Y472463D01*
X352680Y472440D01*
X352680Y374904D01*
X352695Y374802D01*
X352703Y374700D01*
X352715Y374672D01*
X352720Y374641D01*
X352764Y374549D01*
X352802Y374453D01*
X352822Y374430D01*
X352835Y374402D01*
X352905Y374327D01*
X352970Y374247D01*
X352996Y374230D01*
X353017Y374208D01*
X353106Y374157D01*
X353191Y374100D01*
X353215Y374094D01*
X353247Y374076D01*
X353507Y374018D01*
X353545Y374021D01*
X353568Y374016D01*
X358268Y374016D01*
X358268Y347472D01*
X358283Y347370D01*
X358291Y347268D01*
X358303Y347240D01*
X358308Y347209D01*
X358352Y347117D01*
X358390Y347021D01*
X358410Y346998D01*
X358423Y346970D01*
X358493Y346895D01*
X358558Y346815D01*
X358584Y346798D01*
X358605Y346776D01*
X358694Y346725D01*
X358779Y346668D01*
X358803Y346662D01*
X358835Y346644D01*
X359095Y346586D01*
X359133Y346589D01*
X359156Y346584D01*
X363348Y346584D01*
X363348Y335788D01*
X363363Y335686D01*
X363371Y335584D01*
X363383Y335556D01*
X363388Y335525D01*
X363432Y335433D01*
X363470Y335337D01*
X363490Y335314D01*
X363503Y335286D01*
X363573Y335211D01*
X363638Y335131D01*
X363664Y335114D01*
X363685Y335092D01*
X363774Y335041D01*
X363859Y334984D01*
X363883Y334978D01*
X363915Y334960D01*
X364175Y334902D01*
X364213Y334905D01*
X364236Y334900D01*
X370332Y334900D01*
X370434Y334915D01*
G37*
G36*
X307107Y285627D02*
X307107Y285627D01*
X307128Y285625D01*
X307238Y285647D01*
X307349Y285664D01*
X307368Y285673D01*
X307388Y285677D01*
X307427Y285701D01*
X307588Y285779D01*
X307671Y285856D01*
X307714Y285884D01*
X325234Y303404D01*
X339090Y303404D01*
X339192Y303419D01*
X339294Y303427D01*
X339322Y303439D01*
X339353Y303444D01*
X339445Y303488D01*
X339541Y303526D01*
X339564Y303546D01*
X339592Y303559D01*
X339667Y303629D01*
X339747Y303694D01*
X339764Y303720D01*
X339786Y303741D01*
X339837Y303830D01*
X339894Y303915D01*
X339900Y303939D01*
X339918Y303971D01*
X339976Y304231D01*
X339973Y304269D01*
X339978Y304292D01*
X339978Y318008D01*
X339963Y318110D01*
X339955Y318212D01*
X339943Y318240D01*
X339938Y318271D01*
X339894Y318363D01*
X339856Y318459D01*
X339836Y318482D01*
X339823Y318510D01*
X339753Y318585D01*
X339688Y318665D01*
X339662Y318682D01*
X339641Y318704D01*
X339552Y318755D01*
X339467Y318812D01*
X339443Y318818D01*
X339411Y318836D01*
X339151Y318894D01*
X339113Y318891D01*
X339090Y318896D01*
X313213Y318896D01*
X306352Y323797D01*
X300021Y328862D01*
X299930Y328914D01*
X299843Y328972D01*
X299821Y328977D01*
X299791Y328995D01*
X299532Y329054D01*
X299491Y329051D01*
X299466Y329056D01*
X267716Y329056D01*
X267614Y329041D01*
X267512Y329033D01*
X267484Y329021D01*
X267453Y329016D01*
X267361Y328972D01*
X267265Y328934D01*
X267242Y328914D01*
X267214Y328901D01*
X267139Y328831D01*
X267059Y328766D01*
X267042Y328740D01*
X267020Y328719D01*
X266969Y328630D01*
X266912Y328545D01*
X266906Y328521D01*
X266888Y328489D01*
X266830Y328229D01*
X266833Y328191D01*
X266828Y328168D01*
X266828Y286512D01*
X266843Y286410D01*
X266851Y286308D01*
X266863Y286280D01*
X266868Y286249D01*
X266912Y286157D01*
X266950Y286061D01*
X266970Y286038D01*
X266983Y286010D01*
X267053Y285935D01*
X267118Y285855D01*
X267144Y285838D01*
X267165Y285816D01*
X267254Y285765D01*
X267339Y285708D01*
X267363Y285702D01*
X267395Y285684D01*
X267655Y285626D01*
X267693Y285629D01*
X267716Y285624D01*
X307086Y285624D01*
X307107Y285627D01*
G37*
G36*
X348001Y264545D02*
X348001Y264545D01*
X348022Y264543D01*
X348132Y264565D01*
X348243Y264582D01*
X348262Y264591D01*
X348282Y264595D01*
X348321Y264619D01*
X348482Y264697D01*
X348565Y264774D01*
X348608Y264802D01*
X351148Y267342D01*
X351161Y267359D01*
X351177Y267372D01*
X351239Y267466D01*
X351306Y267556D01*
X351313Y267576D01*
X351324Y267593D01*
X351334Y267638D01*
X351393Y267807D01*
X351397Y267920D01*
X351408Y267970D01*
X351408Y284112D01*
X361308Y294012D01*
X361321Y294029D01*
X361337Y294042D01*
X361399Y294136D01*
X361466Y294226D01*
X361473Y294246D01*
X361484Y294263D01*
X361494Y294308D01*
X361553Y294477D01*
X361557Y294590D01*
X361568Y294640D01*
X361568Y307340D01*
X361553Y307442D01*
X361545Y307544D01*
X361533Y307572D01*
X361528Y307603D01*
X361484Y307695D01*
X361446Y307791D01*
X361426Y307814D01*
X361413Y307842D01*
X361343Y307917D01*
X361278Y307997D01*
X361252Y308014D01*
X361231Y308036D01*
X361142Y308087D01*
X361057Y308144D01*
X361033Y308150D01*
X361001Y308168D01*
X360741Y308226D01*
X360703Y308223D01*
X360680Y308228D01*
X344170Y308228D01*
X344068Y308213D01*
X343966Y308205D01*
X343938Y308193D01*
X343907Y308188D01*
X343815Y308144D01*
X343719Y308106D01*
X343696Y308086D01*
X343668Y308073D01*
X343593Y308003D01*
X343513Y307938D01*
X343496Y307912D01*
X343474Y307891D01*
X343423Y307802D01*
X343366Y307717D01*
X343360Y307693D01*
X343342Y307661D01*
X343284Y307401D01*
X343287Y307363D01*
X343282Y307340D01*
X343282Y300608D01*
X327660Y300608D01*
X327639Y300605D01*
X327618Y300607D01*
X327508Y300585D01*
X327397Y300568D01*
X327378Y300559D01*
X327358Y300555D01*
X327319Y300531D01*
X327158Y300453D01*
X327075Y300376D01*
X327032Y300348D01*
X318142Y291458D01*
X318129Y291441D01*
X318113Y291428D01*
X318051Y291334D01*
X317984Y291244D01*
X317977Y291224D01*
X317966Y291207D01*
X317956Y291162D01*
X317897Y290993D01*
X317893Y290880D01*
X317882Y290830D01*
X317882Y280670D01*
X317899Y280558D01*
X317911Y280445D01*
X317918Y280431D01*
X317922Y280407D01*
X318037Y280168D01*
X318073Y280129D01*
X318088Y280101D01*
X330788Y264861D01*
X330833Y264821D01*
X330872Y264773D01*
X330932Y264733D01*
X330986Y264685D01*
X331042Y264660D01*
X331093Y264626D01*
X331141Y264615D01*
X331229Y264575D01*
X331438Y264549D01*
X331470Y264542D01*
X347980Y264542D01*
X348001Y264545D01*
G37*
%LPC*%
G36*
X390574Y353817D02*
X390574Y353817D01*
X389681Y354710D01*
X389681Y362974D01*
X390574Y363867D01*
X391629Y363867D01*
X391641Y363877D01*
X391641Y363878D01*
X391641Y363879D01*
X391641Y365814D01*
X391638Y365818D01*
X391638Y365822D01*
X390651Y366809D01*
X390651Y370807D01*
X393479Y373635D01*
X397477Y373635D01*
X400305Y370807D01*
X400305Y366809D01*
X399774Y366278D01*
X399774Y366273D01*
X399771Y366270D01*
X399771Y363879D01*
X399781Y363867D01*
X399782Y363868D01*
X399783Y363867D01*
X400838Y363867D01*
X401731Y362974D01*
X401731Y354710D01*
X400838Y353817D01*
X390574Y353817D01*
G37*
%LPD*%
D10*
X428802Y489302D03*
X511402Y346202D03*
X428802Y203102D03*
X263602Y203102D03*
X181002Y346202D03*
X263602Y489302D03*
D11*
X348752Y360232D03*
X365752Y360232D03*
D12*
X319600Y448500D03*
D13*
X370400Y448500D03*
D14*
X438524Y264118D03*
X388524Y264118D03*
D15*
X335750Y329750D03*
X335750Y323250D03*
X335750Y316750D03*
X335750Y310250D03*
D16*
X345750Y300250D03*
X352250Y300250D03*
X358750Y300250D03*
X365250Y300250D03*
D15*
X375250Y310250D03*
X375250Y316750D03*
X375250Y323250D03*
X375250Y329750D03*
D16*
X365250Y339750D03*
X358750Y339750D03*
X352250Y339750D03*
X345750Y339750D03*
D17*
X355500Y320000D03*
D11*
X362000Y273000D03*
X345000Y273000D03*
D18*
X287008Y253476D03*
X287008Y313476D03*
D19*
X336020Y387048D03*
X364020Y387048D03*
D20*
X434582Y322266D03*
X434582Y309266D03*
D21*
X435970Y293324D03*
X422970Y293324D03*
D20*
X395706Y345842D03*
X395706Y358842D03*
D21*
X401318Y312578D03*
X414318Y312578D03*
X401318Y325248D03*
X414318Y325248D03*
D22*
X345694Y328168D03*
X355346Y328168D03*
X365252Y328422D03*
X345694Y312420D03*
X355600Y312420D03*
X365252Y312420D03*
X350520Y288290D03*
X337058Y284988D03*
X372872Y347726D03*
X394208Y401574D03*
X378968Y380492D03*
X378968Y396494D03*
X392430Y388112D03*
X397510Y432054D03*
X373126Y408940D03*
X390652Y415544D03*
X374650Y423926D03*
X360934Y417576D03*
X331470Y272542D03*
X329438Y294640D03*
D23*
X370576Y380492D02*
X378968Y380492D01*
X370576Y380492D02*
X364020Y387048D01*
D24*
X369162Y343662D02*
X365250Y339750D01*
X369162Y343662D02*
X372872Y347726D01*
X352250Y300250D02*
X352250Y290020D01*
X350520Y288290D01*
X345750Y293680D02*
X345750Y300250D01*
X345750Y293680D02*
X337058Y284988D01*
X352250Y300250D02*
X358750Y300250D01*
X345750Y300250D02*
X345694Y300306D01*
X345694Y312420D01*
D22*
X423418Y313436D03*
D25*
X365252Y339748D02*
X365250Y339750D01*
X365252Y339748D02*
X365252Y328422D01*
D23*
X415176Y313436D02*
X423418Y313436D01*
X415176Y313436D02*
X414318Y312578D01*
D22*
X434594Y330962D03*
D24*
X344542Y272542D02*
X331470Y272542D01*
X344542Y272542D02*
X345000Y273000D01*
D23*
X434594Y322278D02*
X434594Y330962D01*
X434594Y322278D02*
X434582Y322266D01*
X395706Y358842D02*
X394014Y358842D01*
D22*
X395478Y368808D03*
X328422Y367030D03*
D23*
X341954Y367030D01*
X348752Y360232D01*
X395706Y358842D02*
X395706Y368580D01*
X395478Y368808D01*
D25*
X385456Y310250D02*
X375250Y310250D01*
X385456Y310250D02*
X392938Y302768D01*
X428244Y302768D01*
D23*
X435970Y303022D02*
X435970Y293324D01*
X435970Y303022D02*
X435970Y307878D01*
X434582Y309266D01*
D25*
X435716Y302768D02*
X428244Y302768D01*
X435716Y302768D02*
X435970Y303022D01*
X414318Y325248D02*
X409238Y330664D01*
X406654Y333248D01*
D22*
X389128Y330200D03*
D25*
X381924Y323250D02*
X375250Y323250D01*
X391922Y333248D02*
X406654Y333248D01*
X391922Y333248D02*
X381924Y323250D01*
D22*
X388874Y289306D03*
D25*
X391922Y332994D02*
X391922Y333248D01*
X391922Y332994D02*
X389128Y330200D01*
D26*
X392892Y293324D02*
X422970Y293324D01*
X392892Y293324D02*
X388874Y289306D01*
D27*
X375250Y329750D02*
X391342Y345842D01*
X395706Y345842D01*
D25*
X401318Y325248D02*
X401318Y315722D01*
X401318Y312578D01*
X387108Y316750D02*
X375250Y316750D01*
D24*
X387108Y316750D02*
X400290Y316750D01*
X401318Y315722D01*
M02*
