G04 EAGLE Gerber RS-274X export*
G75*
%MOMM*%
%FSLAX34Y34*%
%LPD*%
%INSilkscreen Top*%
%IPPOS*%
%AMOC8*
5,1,8,0,0,1.08239X$1,22.5*%
G01*
%ADD10C,0.101600*%
%ADD11R,0.014731X0.014731*%
%ADD12R,0.147319X0.014731*%
%ADD13R,0.265175X0.014731*%
%ADD14R,0.383031X0.014731*%
%ADD15R,0.515619X0.014731*%
%ADD16R,0.633475X0.014731*%
%ADD17R,0.751331X0.014731*%
%ADD18R,0.883919X0.014731*%
%ADD19R,1.001775X0.014731*%
%ADD20R,1.119631X0.014731*%
%ADD21R,1.134363X0.014731*%
%ADD22R,1.149094X0.014731*%
%ADD23R,1.163825X0.014731*%
%ADD24R,1.178556X0.014731*%
%ADD25R,1.193288X0.014731*%
%ADD26R,1.222756X0.014731*%
%ADD27R,1.237488X0.014731*%
%ADD28R,1.266950X0.014731*%
%ADD29R,1.281681X0.014731*%
%ADD30R,1.311144X0.014731*%
%ADD31R,1.325881X0.014731*%
%ADD32R,1.355344X0.014731*%
%ADD33R,1.370075X0.014731*%
%ADD34R,1.384806X0.014731*%
%ADD35R,1.399538X0.014731*%
%ADD36R,1.414275X0.014731*%
%ADD37R,1.443738X0.014731*%
%ADD38R,1.458469X0.014731*%
%ADD39R,1.487931X0.014731*%
%ADD40R,1.502663X0.014731*%
%ADD41R,1.517394X0.014731*%
%ADD42R,1.532125X0.014731*%
%ADD43R,1.546856X0.014731*%
%ADD44R,1.576319X0.014731*%
%ADD45R,1.605788X0.014731*%
%ADD46R,1.620519X0.014731*%
%ADD47R,1.649981X0.014731*%
%ADD48R,1.664713X0.014731*%
%ADD49R,1.694175X0.014731*%
%ADD50R,1.708913X0.014731*%
%ADD51R,1.738375X0.014731*%
%ADD52R,1.753106X0.014731*%
%ADD53R,1.767838X0.014731*%
%ADD54R,1.782569X0.014731*%
%ADD55R,1.797306X0.014731*%
%ADD56R,0.117856X0.014731*%
%ADD57R,1.826769X0.014731*%
%ADD58R,0.235713X0.014731*%
%ADD59R,0.353569X0.014731*%
%ADD60R,1.856231X0.014731*%
%ADD61R,0.486156X0.014731*%
%ADD62R,1.870963X0.014731*%
%ADD63R,0.604013X0.014731*%
%ADD64R,0.721869X0.014731*%
%ADD65R,1.885694X0.014731*%
%ADD66R,0.839719X0.014731*%
%ADD67R,0.972306X0.014731*%
%ADD68R,1.090169X0.014731*%
%ADD69R,1.208025X0.014731*%
%ADD70R,1.252219X0.014731*%
%ADD71R,1.296412X0.014731*%
%ADD72R,1.340612X0.014731*%
%ADD73R,1.826763X0.014731*%
%ADD74R,1.414269X0.014731*%
%ADD75R,1.812031X0.014731*%
%ADD76R,1.429000X0.014731*%
%ADD77R,1.458462X0.014731*%
%ADD78R,1.473200X0.014731*%
%ADD79R,1.723644X0.014731*%
%ADD80R,1.694181X0.014731*%
%ADD81R,1.679450X0.014731*%
%ADD82R,1.561594X0.014731*%
%ADD83R,1.576325X0.014731*%
%ADD84R,1.591056X0.014731*%
%ADD85R,1.635250X0.014731*%
%ADD86R,1.561588X0.014731*%
%ADD87R,1.443731X0.014731*%
%ADD88R,1.797300X0.014731*%
%ADD89R,1.841500X0.014731*%
%ADD90R,1.311150X0.014731*%
%ADD91R,1.296419X0.014731*%
%ADD92R,1.193294X0.014731*%
%ADD93R,0.957575X0.014731*%
%ADD94R,0.589281X0.014731*%
%ADD95R,0.471425X0.014731*%
%ADD96R,0.220975X0.014731*%
%ADD97R,1.812038X0.014731*%
%ADD98R,0.103119X0.014731*%
%ADD99R,0.029463X0.014731*%
%ADD100R,0.162050X0.014731*%
%ADD101R,0.397763X0.014731*%
%ADD102R,0.648206X0.014731*%
%ADD103R,1.679444X0.014731*%
%ADD104R,1.016506X0.014731*%
%ADD105R,1.104900X0.014731*%
%ADD106R,1.222750X0.014731*%
%ADD107R,1.429006X0.014731*%
%ADD108R,1.208019X0.014731*%
%ADD109R,0.987044X0.014731*%
%ADD110R,0.854456X0.014731*%
%ADD111R,0.618744X0.014731*%
%ADD112R,0.500888X0.014731*%
%ADD113R,0.368300X0.014731*%
%ADD114R,0.132587X0.014731*%
%ADD115R,1.664719X0.014731*%
%ADD116R,1.075438X0.014731*%
%ADD117R,0.942844X0.014731*%
%ADD118R,0.707131X0.014731*%
%ADD119R,0.456694X0.014731*%
%ADD120R,0.088388X0.014731*%
%ADD121C,0.127000*%
%ADD122C,0.076200*%
%ADD123R,12.200000X0.930000*%
%ADD124C,0.254000*%
%ADD125C,0.152400*%


D10*
X407928Y472032D02*
X410586Y470170D01*
X410680Y470107D01*
X410776Y470047D01*
X410874Y469990D01*
X410974Y469937D01*
X411076Y469887D01*
X411180Y469841D01*
X411285Y469799D01*
X411391Y469760D01*
X411499Y469725D01*
X411608Y469694D01*
X411718Y469666D01*
X411829Y469643D01*
X411940Y469623D01*
X412052Y469607D01*
X412165Y469595D01*
X412278Y469587D01*
X412391Y469583D01*
X412505Y469583D01*
X412618Y469587D01*
X412731Y469595D01*
X412844Y469607D01*
X412956Y469623D01*
X413067Y469643D01*
X413178Y469666D01*
X413288Y469694D01*
X413397Y469725D01*
X413505Y469760D01*
X413611Y469799D01*
X413716Y469841D01*
X413820Y469887D01*
X413922Y469937D01*
X414022Y469990D01*
X414120Y470047D01*
X414216Y470107D01*
X414310Y470170D01*
X414401Y470237D01*
X414491Y470306D01*
X414578Y470379D01*
X414662Y470455D01*
X414743Y470534D01*
X414822Y470615D01*
X414898Y470699D01*
X414971Y470786D01*
X415040Y470876D01*
X415107Y470967D01*
X415170Y471061D01*
X415230Y471157D01*
X415287Y471255D01*
X415340Y471355D01*
X415390Y471457D01*
X415436Y471561D01*
X415478Y471666D01*
X415517Y471772D01*
X415552Y471880D01*
X415583Y471989D01*
X415611Y472099D01*
X415634Y472210D01*
X415654Y472321D01*
X415670Y472433D01*
X415682Y472546D01*
X415690Y472659D01*
X415694Y472772D01*
X415694Y472886D01*
X415690Y472999D01*
X415682Y473112D01*
X415670Y473225D01*
X415654Y473337D01*
X415634Y473448D01*
X415611Y473559D01*
X415583Y473669D01*
X415552Y473778D01*
X415517Y473886D01*
X415478Y473992D01*
X415436Y474097D01*
X415390Y474201D01*
X415340Y474303D01*
X415287Y474403D01*
X415230Y474501D01*
X415170Y474597D01*
X415107Y474691D01*
X415040Y474782D01*
X414971Y474872D01*
X414898Y474959D01*
X414822Y475043D01*
X414743Y475124D01*
X414662Y475203D01*
X414578Y475279D01*
X414491Y475352D01*
X414402Y475421D01*
X414310Y475488D01*
X417820Y479369D02*
X414629Y481603D01*
X417819Y479369D02*
X417900Y479309D01*
X417979Y479247D01*
X418056Y479181D01*
X418130Y479113D01*
X418201Y479042D01*
X418269Y478968D01*
X418335Y478891D01*
X418397Y478812D01*
X418457Y478731D01*
X418513Y478647D01*
X418566Y478562D01*
X418615Y478474D01*
X418661Y478385D01*
X418704Y478293D01*
X418743Y478200D01*
X418778Y478106D01*
X418810Y478011D01*
X418838Y477914D01*
X418862Y477816D01*
X418882Y477718D01*
X418899Y477618D01*
X418911Y477518D01*
X418920Y477418D01*
X418925Y477318D01*
X418926Y477217D01*
X418923Y477116D01*
X418916Y477016D01*
X418905Y476916D01*
X418891Y476816D01*
X418872Y476717D01*
X418850Y476619D01*
X418824Y476522D01*
X418794Y476425D01*
X418761Y476331D01*
X418724Y476237D01*
X418683Y476145D01*
X418638Y476054D01*
X418591Y475966D01*
X418539Y475879D01*
X418485Y475795D01*
X418427Y475712D01*
X418366Y475632D01*
X418302Y475554D01*
X418235Y475479D01*
X418166Y475406D01*
X418093Y475337D01*
X418018Y475270D01*
X417940Y475206D01*
X417860Y475145D01*
X417777Y475087D01*
X417693Y475033D01*
X417606Y474981D01*
X417518Y474934D01*
X417427Y474889D01*
X417335Y474848D01*
X417241Y474811D01*
X417147Y474778D01*
X417050Y474748D01*
X416953Y474722D01*
X416855Y474700D01*
X416756Y474681D01*
X416656Y474667D01*
X416556Y474656D01*
X416456Y474649D01*
X416355Y474646D01*
X416254Y474647D01*
X416154Y474652D01*
X416054Y474661D01*
X415954Y474673D01*
X415854Y474690D01*
X415756Y474710D01*
X415658Y474734D01*
X415561Y474762D01*
X415466Y474794D01*
X415372Y474829D01*
X415279Y474868D01*
X415187Y474911D01*
X415098Y474957D01*
X415010Y475006D01*
X414925Y475059D01*
X414841Y475115D01*
X412714Y476605D01*
X423460Y475419D02*
X419949Y463614D01*
X429841Y470952D01*
X426653Y458920D02*
X429312Y457058D01*
X429406Y456995D01*
X429502Y456935D01*
X429600Y456878D01*
X429700Y456825D01*
X429802Y456775D01*
X429906Y456729D01*
X430011Y456687D01*
X430117Y456648D01*
X430225Y456613D01*
X430334Y456582D01*
X430444Y456554D01*
X430555Y456531D01*
X430666Y456511D01*
X430778Y456495D01*
X430891Y456483D01*
X431004Y456475D01*
X431117Y456471D01*
X431231Y456471D01*
X431344Y456475D01*
X431457Y456483D01*
X431570Y456495D01*
X431682Y456511D01*
X431793Y456531D01*
X431904Y456554D01*
X432014Y456582D01*
X432123Y456613D01*
X432231Y456648D01*
X432337Y456687D01*
X432442Y456729D01*
X432546Y456775D01*
X432648Y456825D01*
X432748Y456878D01*
X432846Y456935D01*
X432942Y456995D01*
X433036Y457058D01*
X433127Y457125D01*
X433217Y457194D01*
X433304Y457267D01*
X433388Y457343D01*
X433469Y457422D01*
X433548Y457503D01*
X433624Y457587D01*
X433697Y457674D01*
X433766Y457764D01*
X433833Y457855D01*
X433896Y457949D01*
X433956Y458045D01*
X434013Y458143D01*
X434066Y458243D01*
X434116Y458345D01*
X434162Y458449D01*
X434204Y458554D01*
X434243Y458660D01*
X434278Y458768D01*
X434309Y458877D01*
X434337Y458987D01*
X434360Y459098D01*
X434380Y459209D01*
X434396Y459321D01*
X434408Y459434D01*
X434416Y459547D01*
X434420Y459660D01*
X434420Y459774D01*
X434416Y459887D01*
X434408Y460000D01*
X434396Y460113D01*
X434380Y460225D01*
X434360Y460336D01*
X434337Y460447D01*
X434309Y460557D01*
X434278Y460666D01*
X434243Y460774D01*
X434204Y460880D01*
X434162Y460985D01*
X434116Y461089D01*
X434066Y461191D01*
X434013Y461291D01*
X433956Y461389D01*
X433896Y461485D01*
X433833Y461579D01*
X433766Y461670D01*
X433697Y461760D01*
X433624Y461847D01*
X433548Y461931D01*
X433469Y462012D01*
X433388Y462091D01*
X433304Y462167D01*
X433217Y462240D01*
X433128Y462309D01*
X433036Y462376D01*
X436545Y466257D02*
X433355Y468491D01*
X436545Y466257D02*
X436626Y466197D01*
X436705Y466135D01*
X436782Y466069D01*
X436856Y466001D01*
X436927Y465930D01*
X436995Y465856D01*
X437061Y465779D01*
X437123Y465700D01*
X437183Y465619D01*
X437239Y465535D01*
X437292Y465450D01*
X437341Y465362D01*
X437387Y465273D01*
X437430Y465181D01*
X437469Y465088D01*
X437504Y464994D01*
X437536Y464899D01*
X437564Y464802D01*
X437588Y464704D01*
X437608Y464606D01*
X437625Y464506D01*
X437637Y464406D01*
X437646Y464306D01*
X437651Y464206D01*
X437652Y464105D01*
X437649Y464004D01*
X437642Y463904D01*
X437631Y463804D01*
X437617Y463704D01*
X437598Y463605D01*
X437576Y463507D01*
X437550Y463410D01*
X437520Y463313D01*
X437487Y463219D01*
X437450Y463125D01*
X437409Y463033D01*
X437364Y462942D01*
X437317Y462854D01*
X437265Y462767D01*
X437211Y462683D01*
X437153Y462600D01*
X437092Y462520D01*
X437028Y462442D01*
X436961Y462367D01*
X436892Y462294D01*
X436819Y462225D01*
X436744Y462158D01*
X436666Y462094D01*
X436586Y462033D01*
X436503Y461975D01*
X436419Y461921D01*
X436332Y461869D01*
X436244Y461822D01*
X436153Y461777D01*
X436061Y461736D01*
X435967Y461699D01*
X435873Y461666D01*
X435776Y461636D01*
X435679Y461610D01*
X435581Y461588D01*
X435482Y461569D01*
X435382Y461555D01*
X435282Y461544D01*
X435182Y461537D01*
X435081Y461534D01*
X434980Y461535D01*
X434880Y461540D01*
X434780Y461549D01*
X434680Y461561D01*
X434580Y461578D01*
X434482Y461598D01*
X434384Y461622D01*
X434287Y461650D01*
X434192Y461682D01*
X434098Y461717D01*
X434005Y461756D01*
X433913Y461799D01*
X433824Y461845D01*
X433736Y461894D01*
X433651Y461947D01*
X433567Y462003D01*
X431440Y463493D01*
X497242Y334770D02*
X497242Y331524D01*
X497242Y334770D02*
X497240Y334883D01*
X497234Y334996D01*
X497224Y335109D01*
X497210Y335222D01*
X497193Y335334D01*
X497171Y335445D01*
X497146Y335555D01*
X497116Y335665D01*
X497083Y335773D01*
X497046Y335880D01*
X497006Y335986D01*
X496961Y336090D01*
X496913Y336193D01*
X496862Y336294D01*
X496807Y336393D01*
X496749Y336490D01*
X496687Y336585D01*
X496622Y336678D01*
X496554Y336768D01*
X496483Y336856D01*
X496408Y336942D01*
X496331Y337025D01*
X496251Y337105D01*
X496168Y337182D01*
X496082Y337257D01*
X495994Y337328D01*
X495904Y337396D01*
X495811Y337461D01*
X495716Y337523D01*
X495619Y337581D01*
X495520Y337636D01*
X495419Y337687D01*
X495316Y337735D01*
X495212Y337780D01*
X495106Y337820D01*
X494999Y337857D01*
X494891Y337890D01*
X494781Y337920D01*
X494671Y337945D01*
X494560Y337967D01*
X494448Y337984D01*
X494335Y337998D01*
X494222Y338008D01*
X494109Y338014D01*
X493996Y338016D01*
X493883Y338014D01*
X493770Y338008D01*
X493657Y337998D01*
X493544Y337984D01*
X493432Y337967D01*
X493321Y337945D01*
X493211Y337920D01*
X493101Y337890D01*
X492993Y337857D01*
X492886Y337820D01*
X492780Y337780D01*
X492676Y337735D01*
X492573Y337687D01*
X492472Y337636D01*
X492373Y337581D01*
X492276Y337523D01*
X492181Y337461D01*
X492088Y337396D01*
X491998Y337328D01*
X491910Y337257D01*
X491824Y337182D01*
X491741Y337105D01*
X491661Y337025D01*
X491584Y336942D01*
X491509Y336856D01*
X491438Y336768D01*
X491370Y336678D01*
X491305Y336585D01*
X491243Y336490D01*
X491185Y336393D01*
X491130Y336294D01*
X491079Y336193D01*
X491031Y336090D01*
X490986Y335986D01*
X490946Y335880D01*
X490909Y335773D01*
X490876Y335665D01*
X490846Y335555D01*
X490821Y335445D01*
X490799Y335334D01*
X490782Y335222D01*
X490768Y335109D01*
X490758Y334996D01*
X490752Y334883D01*
X490750Y334770D01*
X485558Y335419D02*
X485558Y331524D01*
X485558Y335419D02*
X485560Y335520D01*
X485566Y335620D01*
X485576Y335720D01*
X485589Y335820D01*
X485607Y335919D01*
X485628Y336018D01*
X485653Y336115D01*
X485682Y336212D01*
X485715Y336307D01*
X485751Y336401D01*
X485791Y336493D01*
X485834Y336584D01*
X485881Y336673D01*
X485931Y336760D01*
X485985Y336846D01*
X486042Y336929D01*
X486102Y337009D01*
X486165Y337088D01*
X486232Y337164D01*
X486301Y337237D01*
X486373Y337307D01*
X486447Y337375D01*
X486524Y337440D01*
X486604Y337501D01*
X486686Y337560D01*
X486770Y337615D01*
X486856Y337667D01*
X486944Y337716D01*
X487034Y337761D01*
X487126Y337803D01*
X487219Y337841D01*
X487314Y337875D01*
X487409Y337906D01*
X487506Y337933D01*
X487604Y337956D01*
X487703Y337976D01*
X487803Y337991D01*
X487903Y338003D01*
X488003Y338011D01*
X488104Y338015D01*
X488204Y338015D01*
X488305Y338011D01*
X488405Y338003D01*
X488505Y337991D01*
X488605Y337976D01*
X488704Y337956D01*
X488802Y337933D01*
X488899Y337906D01*
X488994Y337875D01*
X489089Y337841D01*
X489182Y337803D01*
X489274Y337761D01*
X489364Y337716D01*
X489452Y337667D01*
X489538Y337615D01*
X489622Y337560D01*
X489704Y337501D01*
X489784Y337440D01*
X489861Y337375D01*
X489935Y337307D01*
X490007Y337237D01*
X490076Y337164D01*
X490143Y337088D01*
X490206Y337009D01*
X490266Y336929D01*
X490323Y336846D01*
X490377Y336760D01*
X490427Y336673D01*
X490474Y336584D01*
X490517Y336493D01*
X490557Y336401D01*
X490593Y336307D01*
X490626Y336212D01*
X490655Y336115D01*
X490680Y336018D01*
X490701Y335919D01*
X490719Y335820D01*
X490732Y335720D01*
X490742Y335620D01*
X490748Y335520D01*
X490750Y335419D01*
X490751Y335419D02*
X490751Y332823D01*
X485558Y342305D02*
X497242Y346200D01*
X485558Y350095D01*
X497242Y354384D02*
X497242Y357630D01*
X497240Y357743D01*
X497234Y357856D01*
X497224Y357969D01*
X497210Y358082D01*
X497193Y358194D01*
X497171Y358305D01*
X497146Y358415D01*
X497116Y358525D01*
X497083Y358633D01*
X497046Y358740D01*
X497006Y358846D01*
X496961Y358950D01*
X496913Y359053D01*
X496862Y359154D01*
X496807Y359253D01*
X496749Y359350D01*
X496687Y359445D01*
X496622Y359538D01*
X496554Y359628D01*
X496483Y359716D01*
X496408Y359802D01*
X496331Y359885D01*
X496251Y359965D01*
X496168Y360042D01*
X496082Y360117D01*
X495994Y360188D01*
X495904Y360256D01*
X495811Y360321D01*
X495716Y360383D01*
X495619Y360441D01*
X495520Y360496D01*
X495419Y360547D01*
X495316Y360595D01*
X495212Y360640D01*
X495106Y360680D01*
X494999Y360717D01*
X494891Y360750D01*
X494781Y360780D01*
X494671Y360805D01*
X494560Y360827D01*
X494448Y360844D01*
X494335Y360858D01*
X494222Y360868D01*
X494109Y360874D01*
X493996Y360876D01*
X493883Y360874D01*
X493770Y360868D01*
X493657Y360858D01*
X493544Y360844D01*
X493432Y360827D01*
X493321Y360805D01*
X493211Y360780D01*
X493101Y360750D01*
X492993Y360717D01*
X492886Y360680D01*
X492780Y360640D01*
X492676Y360595D01*
X492573Y360547D01*
X492472Y360496D01*
X492373Y360441D01*
X492276Y360383D01*
X492181Y360321D01*
X492088Y360256D01*
X491998Y360188D01*
X491910Y360117D01*
X491824Y360042D01*
X491741Y359965D01*
X491661Y359885D01*
X491584Y359802D01*
X491509Y359716D01*
X491438Y359628D01*
X491370Y359538D01*
X491305Y359445D01*
X491243Y359350D01*
X491185Y359253D01*
X491130Y359154D01*
X491079Y359053D01*
X491031Y358950D01*
X490986Y358846D01*
X490946Y358740D01*
X490909Y358633D01*
X490876Y358525D01*
X490846Y358415D01*
X490821Y358305D01*
X490799Y358194D01*
X490782Y358082D01*
X490768Y357969D01*
X490758Y357856D01*
X490752Y357743D01*
X490750Y357630D01*
X485558Y358279D02*
X485558Y354384D01*
X485558Y358279D02*
X485560Y358380D01*
X485566Y358480D01*
X485576Y358580D01*
X485589Y358680D01*
X485607Y358779D01*
X485628Y358878D01*
X485653Y358975D01*
X485682Y359072D01*
X485715Y359167D01*
X485751Y359261D01*
X485791Y359353D01*
X485834Y359444D01*
X485881Y359533D01*
X485931Y359620D01*
X485985Y359706D01*
X486042Y359789D01*
X486102Y359869D01*
X486165Y359948D01*
X486232Y360024D01*
X486301Y360097D01*
X486373Y360167D01*
X486447Y360235D01*
X486524Y360300D01*
X486604Y360361D01*
X486686Y360420D01*
X486770Y360475D01*
X486856Y360527D01*
X486944Y360576D01*
X487034Y360621D01*
X487126Y360663D01*
X487219Y360701D01*
X487314Y360735D01*
X487409Y360766D01*
X487506Y360793D01*
X487604Y360816D01*
X487703Y360836D01*
X487803Y360851D01*
X487903Y360863D01*
X488003Y360871D01*
X488104Y360875D01*
X488204Y360875D01*
X488305Y360871D01*
X488405Y360863D01*
X488505Y360851D01*
X488605Y360836D01*
X488704Y360816D01*
X488802Y360793D01*
X488899Y360766D01*
X488994Y360735D01*
X489089Y360701D01*
X489182Y360663D01*
X489274Y360621D01*
X489364Y360576D01*
X489452Y360527D01*
X489538Y360475D01*
X489622Y360420D01*
X489704Y360361D01*
X489784Y360300D01*
X489861Y360235D01*
X489935Y360167D01*
X490007Y360097D01*
X490076Y360024D01*
X490143Y359948D01*
X490206Y359869D01*
X490266Y359789D01*
X490323Y359706D01*
X490377Y359620D01*
X490427Y359533D01*
X490474Y359444D01*
X490517Y359353D01*
X490557Y359261D01*
X490593Y359167D01*
X490626Y359072D01*
X490655Y358975D01*
X490680Y358878D01*
X490701Y358779D01*
X490719Y358680D01*
X490732Y358580D01*
X490742Y358480D01*
X490748Y358380D01*
X490750Y358279D01*
X490751Y358279D02*
X490751Y355683D01*
X412788Y209159D02*
X410129Y207297D01*
X412788Y209158D02*
X412879Y209225D01*
X412969Y209294D01*
X413056Y209367D01*
X413140Y209443D01*
X413221Y209522D01*
X413300Y209603D01*
X413376Y209687D01*
X413449Y209774D01*
X413518Y209864D01*
X413585Y209955D01*
X413648Y210049D01*
X413708Y210145D01*
X413765Y210243D01*
X413818Y210343D01*
X413868Y210445D01*
X413914Y210549D01*
X413956Y210654D01*
X413995Y210760D01*
X414030Y210868D01*
X414061Y210977D01*
X414089Y211087D01*
X414112Y211198D01*
X414132Y211309D01*
X414148Y211421D01*
X414160Y211534D01*
X414168Y211647D01*
X414172Y211760D01*
X414172Y211874D01*
X414168Y211987D01*
X414160Y212100D01*
X414148Y212213D01*
X414132Y212325D01*
X414112Y212436D01*
X414089Y212547D01*
X414061Y212657D01*
X414030Y212766D01*
X413995Y212874D01*
X413956Y212980D01*
X413914Y213085D01*
X413868Y213189D01*
X413818Y213291D01*
X413765Y213391D01*
X413708Y213489D01*
X413648Y213585D01*
X413585Y213679D01*
X413518Y213770D01*
X413449Y213860D01*
X413376Y213947D01*
X413300Y214031D01*
X413221Y214112D01*
X413140Y214191D01*
X413056Y214267D01*
X412969Y214340D01*
X412880Y214409D01*
X412788Y214476D01*
X412694Y214539D01*
X412598Y214599D01*
X412500Y214656D01*
X412400Y214709D01*
X412298Y214759D01*
X412194Y214805D01*
X412089Y214847D01*
X411983Y214886D01*
X411875Y214921D01*
X411766Y214952D01*
X411656Y214980D01*
X411545Y215003D01*
X411434Y215023D01*
X411322Y215039D01*
X411209Y215051D01*
X411096Y215059D01*
X410983Y215063D01*
X410869Y215063D01*
X410756Y215059D01*
X410643Y215051D01*
X410530Y215039D01*
X410418Y215023D01*
X410307Y215003D01*
X410196Y214980D01*
X410086Y214952D01*
X409977Y214921D01*
X409869Y214886D01*
X409763Y214847D01*
X409658Y214805D01*
X409554Y214759D01*
X409452Y214709D01*
X409352Y214656D01*
X409254Y214599D01*
X409158Y214539D01*
X409064Y214476D01*
X406618Y219102D02*
X403428Y216868D01*
X406618Y219102D02*
X406702Y219158D01*
X406787Y219211D01*
X406875Y219260D01*
X406964Y219306D01*
X407056Y219349D01*
X407149Y219388D01*
X407243Y219423D01*
X407338Y219455D01*
X407435Y219483D01*
X407533Y219507D01*
X407631Y219527D01*
X407731Y219544D01*
X407831Y219556D01*
X407931Y219565D01*
X408032Y219570D01*
X408132Y219571D01*
X408233Y219568D01*
X408333Y219561D01*
X408433Y219550D01*
X408533Y219536D01*
X408632Y219517D01*
X408730Y219495D01*
X408827Y219469D01*
X408924Y219439D01*
X409019Y219406D01*
X409112Y219369D01*
X409204Y219328D01*
X409295Y219283D01*
X409383Y219236D01*
X409470Y219184D01*
X409554Y219130D01*
X409637Y219072D01*
X409717Y219011D01*
X409795Y218947D01*
X409870Y218880D01*
X409943Y218811D01*
X410012Y218738D01*
X410079Y218663D01*
X410143Y218585D01*
X410204Y218505D01*
X410262Y218422D01*
X410316Y218338D01*
X410368Y218251D01*
X410415Y218163D01*
X410460Y218072D01*
X410501Y217980D01*
X410538Y217886D01*
X410571Y217792D01*
X410601Y217695D01*
X410627Y217598D01*
X410649Y217500D01*
X410668Y217401D01*
X410682Y217301D01*
X410693Y217201D01*
X410700Y217101D01*
X410703Y217000D01*
X410702Y216900D01*
X410697Y216799D01*
X410688Y216699D01*
X410676Y216599D01*
X410659Y216499D01*
X410639Y216401D01*
X410615Y216303D01*
X410587Y216206D01*
X410555Y216111D01*
X410520Y216017D01*
X410481Y215924D01*
X410438Y215832D01*
X410392Y215743D01*
X410343Y215655D01*
X410290Y215570D01*
X410234Y215486D01*
X410174Y215405D01*
X410112Y215326D01*
X410046Y215249D01*
X409978Y215175D01*
X409907Y215104D01*
X409833Y215036D01*
X409756Y214970D01*
X409677Y214908D01*
X409596Y214848D01*
X407470Y213359D01*
X412259Y223052D02*
X422151Y215714D01*
X418639Y227519D01*
X428855Y220409D02*
X431514Y222270D01*
X431605Y222337D01*
X431695Y222406D01*
X431782Y222479D01*
X431866Y222555D01*
X431947Y222634D01*
X432026Y222715D01*
X432102Y222799D01*
X432175Y222886D01*
X432244Y222976D01*
X432311Y223067D01*
X432374Y223161D01*
X432434Y223257D01*
X432491Y223355D01*
X432544Y223455D01*
X432594Y223557D01*
X432640Y223661D01*
X432682Y223766D01*
X432721Y223872D01*
X432756Y223980D01*
X432787Y224089D01*
X432815Y224199D01*
X432838Y224310D01*
X432858Y224421D01*
X432874Y224533D01*
X432886Y224646D01*
X432894Y224759D01*
X432898Y224872D01*
X432898Y224986D01*
X432894Y225099D01*
X432886Y225212D01*
X432874Y225325D01*
X432858Y225437D01*
X432838Y225548D01*
X432815Y225659D01*
X432787Y225769D01*
X432756Y225878D01*
X432721Y225986D01*
X432682Y226092D01*
X432640Y226197D01*
X432594Y226301D01*
X432544Y226403D01*
X432491Y226503D01*
X432434Y226601D01*
X432374Y226697D01*
X432311Y226791D01*
X432244Y226882D01*
X432175Y226972D01*
X432102Y227059D01*
X432026Y227143D01*
X431947Y227224D01*
X431866Y227303D01*
X431782Y227379D01*
X431695Y227452D01*
X431606Y227521D01*
X431514Y227588D01*
X431420Y227651D01*
X431324Y227711D01*
X431226Y227768D01*
X431126Y227821D01*
X431024Y227871D01*
X430920Y227917D01*
X430815Y227959D01*
X430709Y227998D01*
X430601Y228033D01*
X430492Y228064D01*
X430382Y228092D01*
X430271Y228115D01*
X430160Y228135D01*
X430048Y228151D01*
X429935Y228163D01*
X429822Y228171D01*
X429709Y228175D01*
X429595Y228175D01*
X429482Y228171D01*
X429369Y228163D01*
X429256Y228151D01*
X429144Y228135D01*
X429033Y228115D01*
X428922Y228092D01*
X428812Y228064D01*
X428703Y228033D01*
X428595Y227998D01*
X428489Y227959D01*
X428384Y227917D01*
X428280Y227871D01*
X428178Y227821D01*
X428078Y227768D01*
X427980Y227711D01*
X427884Y227651D01*
X427790Y227588D01*
X425344Y232214D02*
X422153Y229980D01*
X425344Y232214D02*
X425428Y232270D01*
X425513Y232323D01*
X425601Y232372D01*
X425690Y232418D01*
X425782Y232461D01*
X425875Y232500D01*
X425969Y232535D01*
X426064Y232567D01*
X426161Y232595D01*
X426259Y232619D01*
X426357Y232639D01*
X426457Y232656D01*
X426557Y232668D01*
X426657Y232677D01*
X426758Y232682D01*
X426858Y232683D01*
X426959Y232680D01*
X427059Y232673D01*
X427159Y232662D01*
X427259Y232648D01*
X427358Y232629D01*
X427456Y232607D01*
X427553Y232581D01*
X427650Y232551D01*
X427745Y232518D01*
X427838Y232481D01*
X427930Y232440D01*
X428021Y232395D01*
X428109Y232348D01*
X428196Y232296D01*
X428280Y232242D01*
X428363Y232184D01*
X428443Y232123D01*
X428521Y232059D01*
X428596Y231992D01*
X428669Y231923D01*
X428738Y231850D01*
X428805Y231775D01*
X428869Y231697D01*
X428930Y231617D01*
X428988Y231534D01*
X429042Y231450D01*
X429094Y231363D01*
X429141Y231275D01*
X429186Y231184D01*
X429227Y231092D01*
X429264Y230998D01*
X429297Y230904D01*
X429327Y230807D01*
X429353Y230710D01*
X429375Y230612D01*
X429394Y230513D01*
X429408Y230413D01*
X429419Y230313D01*
X429426Y230213D01*
X429429Y230112D01*
X429428Y230012D01*
X429423Y229911D01*
X429414Y229811D01*
X429402Y229711D01*
X429385Y229611D01*
X429365Y229513D01*
X429341Y229415D01*
X429313Y229318D01*
X429281Y229223D01*
X429246Y229129D01*
X429207Y229036D01*
X429164Y228944D01*
X429118Y228855D01*
X429069Y228767D01*
X429016Y228682D01*
X428960Y228598D01*
X428900Y228517D01*
X428838Y228438D01*
X428772Y228361D01*
X428704Y228287D01*
X428633Y228216D01*
X428559Y228148D01*
X428482Y228082D01*
X428403Y228020D01*
X428322Y227960D01*
X426195Y226471D01*
X260886Y222270D02*
X258228Y224132D01*
X260886Y222270D02*
X260980Y222207D01*
X261076Y222147D01*
X261174Y222090D01*
X261274Y222037D01*
X261376Y221987D01*
X261480Y221941D01*
X261585Y221899D01*
X261691Y221860D01*
X261799Y221825D01*
X261908Y221794D01*
X262018Y221766D01*
X262129Y221743D01*
X262240Y221723D01*
X262352Y221707D01*
X262465Y221695D01*
X262578Y221687D01*
X262691Y221683D01*
X262805Y221683D01*
X262918Y221687D01*
X263031Y221695D01*
X263144Y221707D01*
X263256Y221723D01*
X263367Y221743D01*
X263478Y221766D01*
X263588Y221794D01*
X263697Y221825D01*
X263805Y221860D01*
X263911Y221899D01*
X264016Y221941D01*
X264120Y221987D01*
X264222Y222037D01*
X264322Y222090D01*
X264420Y222147D01*
X264516Y222207D01*
X264610Y222270D01*
X264701Y222337D01*
X264791Y222406D01*
X264878Y222479D01*
X264962Y222555D01*
X265043Y222634D01*
X265122Y222715D01*
X265198Y222799D01*
X265271Y222886D01*
X265340Y222976D01*
X265407Y223067D01*
X265470Y223161D01*
X265530Y223257D01*
X265587Y223355D01*
X265640Y223455D01*
X265690Y223557D01*
X265736Y223661D01*
X265778Y223766D01*
X265817Y223872D01*
X265852Y223980D01*
X265883Y224089D01*
X265911Y224199D01*
X265934Y224310D01*
X265954Y224421D01*
X265970Y224533D01*
X265982Y224646D01*
X265990Y224759D01*
X265994Y224872D01*
X265994Y224986D01*
X265990Y225099D01*
X265982Y225212D01*
X265970Y225325D01*
X265954Y225437D01*
X265934Y225548D01*
X265911Y225659D01*
X265883Y225769D01*
X265852Y225878D01*
X265817Y225986D01*
X265778Y226092D01*
X265736Y226197D01*
X265690Y226301D01*
X265640Y226403D01*
X265587Y226503D01*
X265530Y226601D01*
X265470Y226697D01*
X265407Y226791D01*
X265340Y226882D01*
X265271Y226972D01*
X265198Y227059D01*
X265122Y227143D01*
X265043Y227224D01*
X264962Y227303D01*
X264878Y227379D01*
X264791Y227452D01*
X264702Y227521D01*
X264610Y227588D01*
X268120Y231469D02*
X264929Y233703D01*
X268119Y231469D02*
X268200Y231409D01*
X268279Y231347D01*
X268356Y231281D01*
X268430Y231213D01*
X268501Y231142D01*
X268569Y231068D01*
X268635Y230991D01*
X268697Y230912D01*
X268757Y230831D01*
X268813Y230747D01*
X268866Y230662D01*
X268915Y230574D01*
X268961Y230485D01*
X269004Y230393D01*
X269043Y230300D01*
X269078Y230206D01*
X269110Y230111D01*
X269138Y230014D01*
X269162Y229916D01*
X269182Y229818D01*
X269199Y229718D01*
X269211Y229618D01*
X269220Y229518D01*
X269225Y229418D01*
X269226Y229317D01*
X269223Y229216D01*
X269216Y229116D01*
X269205Y229016D01*
X269191Y228916D01*
X269172Y228817D01*
X269150Y228719D01*
X269124Y228622D01*
X269094Y228525D01*
X269061Y228431D01*
X269024Y228337D01*
X268983Y228245D01*
X268938Y228154D01*
X268891Y228066D01*
X268839Y227979D01*
X268785Y227895D01*
X268727Y227812D01*
X268666Y227732D01*
X268602Y227654D01*
X268535Y227579D01*
X268466Y227506D01*
X268393Y227437D01*
X268318Y227370D01*
X268240Y227306D01*
X268160Y227245D01*
X268077Y227187D01*
X267993Y227133D01*
X267906Y227081D01*
X267818Y227034D01*
X267727Y226989D01*
X267635Y226948D01*
X267541Y226911D01*
X267447Y226878D01*
X267350Y226848D01*
X267253Y226822D01*
X267155Y226800D01*
X267056Y226781D01*
X266956Y226767D01*
X266856Y226756D01*
X266756Y226749D01*
X266655Y226746D01*
X266554Y226747D01*
X266454Y226752D01*
X266354Y226761D01*
X266254Y226773D01*
X266154Y226790D01*
X266056Y226810D01*
X265958Y226834D01*
X265861Y226862D01*
X265766Y226894D01*
X265672Y226929D01*
X265579Y226968D01*
X265487Y227011D01*
X265398Y227057D01*
X265310Y227106D01*
X265225Y227159D01*
X265141Y227215D01*
X263014Y228705D01*
X273760Y227519D02*
X270249Y215714D01*
X280141Y223052D01*
X276953Y211020D02*
X279612Y209158D01*
X279706Y209095D01*
X279802Y209035D01*
X279900Y208978D01*
X280000Y208925D01*
X280102Y208875D01*
X280206Y208829D01*
X280311Y208787D01*
X280417Y208748D01*
X280525Y208713D01*
X280634Y208682D01*
X280744Y208654D01*
X280855Y208631D01*
X280966Y208611D01*
X281078Y208595D01*
X281191Y208583D01*
X281304Y208575D01*
X281417Y208571D01*
X281531Y208571D01*
X281644Y208575D01*
X281757Y208583D01*
X281870Y208595D01*
X281982Y208611D01*
X282093Y208631D01*
X282204Y208654D01*
X282314Y208682D01*
X282423Y208713D01*
X282531Y208748D01*
X282637Y208787D01*
X282742Y208829D01*
X282846Y208875D01*
X282948Y208925D01*
X283048Y208978D01*
X283146Y209035D01*
X283242Y209095D01*
X283336Y209158D01*
X283427Y209225D01*
X283517Y209294D01*
X283604Y209367D01*
X283688Y209443D01*
X283769Y209522D01*
X283848Y209603D01*
X283924Y209687D01*
X283997Y209774D01*
X284066Y209864D01*
X284133Y209955D01*
X284196Y210049D01*
X284256Y210145D01*
X284313Y210243D01*
X284366Y210343D01*
X284416Y210445D01*
X284462Y210549D01*
X284504Y210654D01*
X284543Y210760D01*
X284578Y210868D01*
X284609Y210977D01*
X284637Y211087D01*
X284660Y211198D01*
X284680Y211309D01*
X284696Y211421D01*
X284708Y211534D01*
X284716Y211647D01*
X284720Y211760D01*
X284720Y211874D01*
X284716Y211987D01*
X284708Y212100D01*
X284696Y212213D01*
X284680Y212325D01*
X284660Y212436D01*
X284637Y212547D01*
X284609Y212657D01*
X284578Y212766D01*
X284543Y212874D01*
X284504Y212980D01*
X284462Y213085D01*
X284416Y213189D01*
X284366Y213291D01*
X284313Y213391D01*
X284256Y213489D01*
X284196Y213585D01*
X284133Y213679D01*
X284066Y213770D01*
X283997Y213860D01*
X283924Y213947D01*
X283848Y214031D01*
X283769Y214112D01*
X283688Y214191D01*
X283604Y214267D01*
X283517Y214340D01*
X283428Y214409D01*
X283336Y214476D01*
X286845Y218357D02*
X283655Y220591D01*
X286845Y218357D02*
X286926Y218297D01*
X287005Y218235D01*
X287082Y218169D01*
X287156Y218101D01*
X287227Y218030D01*
X287295Y217956D01*
X287361Y217879D01*
X287423Y217800D01*
X287483Y217719D01*
X287539Y217635D01*
X287592Y217550D01*
X287641Y217462D01*
X287687Y217373D01*
X287730Y217281D01*
X287769Y217188D01*
X287804Y217094D01*
X287836Y216999D01*
X287864Y216902D01*
X287888Y216804D01*
X287908Y216706D01*
X287925Y216606D01*
X287937Y216506D01*
X287946Y216406D01*
X287951Y216306D01*
X287952Y216205D01*
X287949Y216104D01*
X287942Y216004D01*
X287931Y215904D01*
X287917Y215804D01*
X287898Y215705D01*
X287876Y215607D01*
X287850Y215510D01*
X287820Y215413D01*
X287787Y215319D01*
X287750Y215225D01*
X287709Y215133D01*
X287664Y215042D01*
X287617Y214954D01*
X287565Y214867D01*
X287511Y214783D01*
X287453Y214700D01*
X287392Y214620D01*
X287328Y214542D01*
X287261Y214467D01*
X287192Y214394D01*
X287119Y214325D01*
X287044Y214258D01*
X286966Y214194D01*
X286886Y214133D01*
X286803Y214075D01*
X286719Y214021D01*
X286632Y213969D01*
X286544Y213922D01*
X286453Y213877D01*
X286361Y213836D01*
X286267Y213799D01*
X286173Y213766D01*
X286076Y213736D01*
X285979Y213710D01*
X285881Y213688D01*
X285782Y213669D01*
X285682Y213655D01*
X285582Y213644D01*
X285482Y213637D01*
X285381Y213634D01*
X285280Y213635D01*
X285180Y213640D01*
X285080Y213649D01*
X284980Y213661D01*
X284880Y213678D01*
X284782Y213698D01*
X284684Y213722D01*
X284587Y213750D01*
X284492Y213782D01*
X284398Y213817D01*
X284305Y213856D01*
X284213Y213899D01*
X284124Y213945D01*
X284036Y213994D01*
X283951Y214047D01*
X283867Y214103D01*
X281740Y215593D01*
X206842Y331524D02*
X206842Y334770D01*
X206840Y334883D01*
X206834Y334996D01*
X206824Y335109D01*
X206810Y335222D01*
X206793Y335334D01*
X206771Y335445D01*
X206746Y335555D01*
X206716Y335665D01*
X206683Y335773D01*
X206646Y335880D01*
X206606Y335986D01*
X206561Y336090D01*
X206513Y336193D01*
X206462Y336294D01*
X206407Y336393D01*
X206349Y336490D01*
X206287Y336585D01*
X206222Y336678D01*
X206154Y336768D01*
X206083Y336856D01*
X206008Y336942D01*
X205931Y337025D01*
X205851Y337105D01*
X205768Y337182D01*
X205682Y337257D01*
X205594Y337328D01*
X205504Y337396D01*
X205411Y337461D01*
X205316Y337523D01*
X205219Y337581D01*
X205120Y337636D01*
X205019Y337687D01*
X204916Y337735D01*
X204812Y337780D01*
X204706Y337820D01*
X204599Y337857D01*
X204491Y337890D01*
X204381Y337920D01*
X204271Y337945D01*
X204160Y337967D01*
X204048Y337984D01*
X203935Y337998D01*
X203822Y338008D01*
X203709Y338014D01*
X203596Y338016D01*
X203483Y338014D01*
X203370Y338008D01*
X203257Y337998D01*
X203144Y337984D01*
X203032Y337967D01*
X202921Y337945D01*
X202811Y337920D01*
X202701Y337890D01*
X202593Y337857D01*
X202486Y337820D01*
X202380Y337780D01*
X202276Y337735D01*
X202173Y337687D01*
X202072Y337636D01*
X201973Y337581D01*
X201876Y337523D01*
X201781Y337461D01*
X201688Y337396D01*
X201598Y337328D01*
X201510Y337257D01*
X201424Y337182D01*
X201341Y337105D01*
X201261Y337025D01*
X201184Y336942D01*
X201109Y336856D01*
X201038Y336768D01*
X200970Y336678D01*
X200905Y336585D01*
X200843Y336490D01*
X200785Y336393D01*
X200730Y336294D01*
X200679Y336193D01*
X200631Y336090D01*
X200586Y335986D01*
X200546Y335880D01*
X200509Y335773D01*
X200476Y335665D01*
X200446Y335555D01*
X200421Y335445D01*
X200399Y335334D01*
X200382Y335222D01*
X200368Y335109D01*
X200358Y334996D01*
X200352Y334883D01*
X200350Y334770D01*
X195158Y335419D02*
X195158Y331524D01*
X195158Y335419D02*
X195160Y335520D01*
X195166Y335620D01*
X195176Y335720D01*
X195189Y335820D01*
X195207Y335919D01*
X195228Y336018D01*
X195253Y336115D01*
X195282Y336212D01*
X195315Y336307D01*
X195351Y336401D01*
X195391Y336493D01*
X195434Y336584D01*
X195481Y336673D01*
X195531Y336760D01*
X195585Y336846D01*
X195642Y336929D01*
X195702Y337009D01*
X195765Y337088D01*
X195832Y337164D01*
X195901Y337237D01*
X195973Y337307D01*
X196047Y337375D01*
X196124Y337440D01*
X196204Y337501D01*
X196286Y337560D01*
X196370Y337615D01*
X196456Y337667D01*
X196544Y337716D01*
X196634Y337761D01*
X196726Y337803D01*
X196819Y337841D01*
X196914Y337875D01*
X197009Y337906D01*
X197106Y337933D01*
X197204Y337956D01*
X197303Y337976D01*
X197403Y337991D01*
X197503Y338003D01*
X197603Y338011D01*
X197704Y338015D01*
X197804Y338015D01*
X197905Y338011D01*
X198005Y338003D01*
X198105Y337991D01*
X198205Y337976D01*
X198304Y337956D01*
X198402Y337933D01*
X198499Y337906D01*
X198594Y337875D01*
X198689Y337841D01*
X198782Y337803D01*
X198874Y337761D01*
X198964Y337716D01*
X199052Y337667D01*
X199138Y337615D01*
X199222Y337560D01*
X199304Y337501D01*
X199384Y337440D01*
X199461Y337375D01*
X199535Y337307D01*
X199607Y337237D01*
X199676Y337164D01*
X199743Y337088D01*
X199806Y337009D01*
X199866Y336929D01*
X199923Y336846D01*
X199977Y336760D01*
X200027Y336673D01*
X200074Y336584D01*
X200117Y336493D01*
X200157Y336401D01*
X200193Y336307D01*
X200226Y336212D01*
X200255Y336115D01*
X200280Y336018D01*
X200301Y335919D01*
X200319Y335820D01*
X200332Y335720D01*
X200342Y335620D01*
X200348Y335520D01*
X200350Y335419D01*
X200351Y335419D02*
X200351Y332823D01*
X195158Y342305D02*
X206842Y346200D01*
X195158Y350095D01*
X206842Y354384D02*
X206842Y357630D01*
X206840Y357743D01*
X206834Y357856D01*
X206824Y357969D01*
X206810Y358082D01*
X206793Y358194D01*
X206771Y358305D01*
X206746Y358415D01*
X206716Y358525D01*
X206683Y358633D01*
X206646Y358740D01*
X206606Y358846D01*
X206561Y358950D01*
X206513Y359053D01*
X206462Y359154D01*
X206407Y359253D01*
X206349Y359350D01*
X206287Y359445D01*
X206222Y359538D01*
X206154Y359628D01*
X206083Y359716D01*
X206008Y359802D01*
X205931Y359885D01*
X205851Y359965D01*
X205768Y360042D01*
X205682Y360117D01*
X205594Y360188D01*
X205504Y360256D01*
X205411Y360321D01*
X205316Y360383D01*
X205219Y360441D01*
X205120Y360496D01*
X205019Y360547D01*
X204916Y360595D01*
X204812Y360640D01*
X204706Y360680D01*
X204599Y360717D01*
X204491Y360750D01*
X204381Y360780D01*
X204271Y360805D01*
X204160Y360827D01*
X204048Y360844D01*
X203935Y360858D01*
X203822Y360868D01*
X203709Y360874D01*
X203596Y360876D01*
X203483Y360874D01*
X203370Y360868D01*
X203257Y360858D01*
X203144Y360844D01*
X203032Y360827D01*
X202921Y360805D01*
X202811Y360780D01*
X202701Y360750D01*
X202593Y360717D01*
X202486Y360680D01*
X202380Y360640D01*
X202276Y360595D01*
X202173Y360547D01*
X202072Y360496D01*
X201973Y360441D01*
X201876Y360383D01*
X201781Y360321D01*
X201688Y360256D01*
X201598Y360188D01*
X201510Y360117D01*
X201424Y360042D01*
X201341Y359965D01*
X201261Y359885D01*
X201184Y359802D01*
X201109Y359716D01*
X201038Y359628D01*
X200970Y359538D01*
X200905Y359445D01*
X200843Y359350D01*
X200785Y359253D01*
X200730Y359154D01*
X200679Y359053D01*
X200631Y358950D01*
X200586Y358846D01*
X200546Y358740D01*
X200509Y358633D01*
X200476Y358525D01*
X200446Y358415D01*
X200421Y358305D01*
X200399Y358194D01*
X200382Y358082D01*
X200368Y357969D01*
X200358Y357856D01*
X200352Y357743D01*
X200350Y357630D01*
X195158Y358279D02*
X195158Y354384D01*
X195158Y358279D02*
X195160Y358380D01*
X195166Y358480D01*
X195176Y358580D01*
X195189Y358680D01*
X195207Y358779D01*
X195228Y358878D01*
X195253Y358975D01*
X195282Y359072D01*
X195315Y359167D01*
X195351Y359261D01*
X195391Y359353D01*
X195434Y359444D01*
X195481Y359533D01*
X195531Y359620D01*
X195585Y359706D01*
X195642Y359789D01*
X195702Y359869D01*
X195765Y359948D01*
X195832Y360024D01*
X195901Y360097D01*
X195973Y360167D01*
X196047Y360235D01*
X196124Y360300D01*
X196204Y360361D01*
X196286Y360420D01*
X196370Y360475D01*
X196456Y360527D01*
X196544Y360576D01*
X196634Y360621D01*
X196726Y360663D01*
X196819Y360701D01*
X196914Y360735D01*
X197009Y360766D01*
X197106Y360793D01*
X197204Y360816D01*
X197303Y360836D01*
X197403Y360851D01*
X197503Y360863D01*
X197603Y360871D01*
X197704Y360875D01*
X197804Y360875D01*
X197905Y360871D01*
X198005Y360863D01*
X198105Y360851D01*
X198205Y360836D01*
X198304Y360816D01*
X198402Y360793D01*
X198499Y360766D01*
X198594Y360735D01*
X198689Y360701D01*
X198782Y360663D01*
X198874Y360621D01*
X198964Y360576D01*
X199052Y360527D01*
X199138Y360475D01*
X199222Y360420D01*
X199304Y360361D01*
X199384Y360300D01*
X199461Y360235D01*
X199535Y360167D01*
X199607Y360097D01*
X199676Y360024D01*
X199743Y359948D01*
X199806Y359869D01*
X199866Y359789D01*
X199923Y359706D01*
X199977Y359620D01*
X200027Y359533D01*
X200074Y359444D01*
X200117Y359353D01*
X200157Y359261D01*
X200193Y359167D01*
X200226Y359072D01*
X200255Y358975D01*
X200280Y358878D01*
X200301Y358779D01*
X200319Y358680D01*
X200332Y358580D01*
X200342Y358480D01*
X200348Y358380D01*
X200350Y358279D01*
X200351Y358279D02*
X200351Y355683D01*
X259429Y454697D02*
X262088Y456559D01*
X262088Y456558D02*
X262179Y456625D01*
X262269Y456694D01*
X262356Y456767D01*
X262440Y456843D01*
X262521Y456922D01*
X262600Y457003D01*
X262676Y457087D01*
X262749Y457174D01*
X262818Y457264D01*
X262885Y457355D01*
X262948Y457449D01*
X263008Y457545D01*
X263065Y457643D01*
X263118Y457743D01*
X263168Y457845D01*
X263214Y457949D01*
X263256Y458054D01*
X263295Y458160D01*
X263330Y458268D01*
X263361Y458377D01*
X263389Y458487D01*
X263412Y458598D01*
X263432Y458709D01*
X263448Y458821D01*
X263460Y458934D01*
X263468Y459047D01*
X263472Y459160D01*
X263472Y459274D01*
X263468Y459387D01*
X263460Y459500D01*
X263448Y459613D01*
X263432Y459725D01*
X263412Y459836D01*
X263389Y459947D01*
X263361Y460057D01*
X263330Y460166D01*
X263295Y460274D01*
X263256Y460380D01*
X263214Y460485D01*
X263168Y460589D01*
X263118Y460691D01*
X263065Y460791D01*
X263008Y460889D01*
X262948Y460985D01*
X262885Y461079D01*
X262818Y461170D01*
X262749Y461260D01*
X262676Y461347D01*
X262600Y461431D01*
X262521Y461512D01*
X262440Y461591D01*
X262356Y461667D01*
X262269Y461740D01*
X262180Y461809D01*
X262088Y461876D01*
X261994Y461939D01*
X261898Y461999D01*
X261800Y462056D01*
X261700Y462109D01*
X261598Y462159D01*
X261494Y462205D01*
X261389Y462247D01*
X261283Y462286D01*
X261175Y462321D01*
X261066Y462352D01*
X260956Y462380D01*
X260845Y462403D01*
X260734Y462423D01*
X260622Y462439D01*
X260509Y462451D01*
X260396Y462459D01*
X260283Y462463D01*
X260169Y462463D01*
X260056Y462459D01*
X259943Y462451D01*
X259830Y462439D01*
X259718Y462423D01*
X259607Y462403D01*
X259496Y462380D01*
X259386Y462352D01*
X259277Y462321D01*
X259169Y462286D01*
X259063Y462247D01*
X258958Y462205D01*
X258854Y462159D01*
X258752Y462109D01*
X258652Y462056D01*
X258554Y461999D01*
X258458Y461939D01*
X258364Y461876D01*
X255918Y466502D02*
X252728Y464268D01*
X255918Y466502D02*
X256002Y466558D01*
X256087Y466611D01*
X256175Y466660D01*
X256264Y466706D01*
X256356Y466749D01*
X256449Y466788D01*
X256543Y466823D01*
X256638Y466855D01*
X256735Y466883D01*
X256833Y466907D01*
X256931Y466927D01*
X257031Y466944D01*
X257131Y466956D01*
X257231Y466965D01*
X257332Y466970D01*
X257432Y466971D01*
X257533Y466968D01*
X257633Y466961D01*
X257733Y466950D01*
X257833Y466936D01*
X257932Y466917D01*
X258030Y466895D01*
X258127Y466869D01*
X258224Y466839D01*
X258319Y466806D01*
X258412Y466769D01*
X258504Y466728D01*
X258595Y466683D01*
X258683Y466636D01*
X258770Y466584D01*
X258854Y466530D01*
X258937Y466472D01*
X259017Y466411D01*
X259095Y466347D01*
X259170Y466280D01*
X259243Y466211D01*
X259312Y466138D01*
X259379Y466063D01*
X259443Y465985D01*
X259504Y465905D01*
X259562Y465822D01*
X259616Y465738D01*
X259668Y465651D01*
X259715Y465563D01*
X259760Y465472D01*
X259801Y465380D01*
X259838Y465286D01*
X259871Y465192D01*
X259901Y465095D01*
X259927Y464998D01*
X259949Y464900D01*
X259968Y464801D01*
X259982Y464701D01*
X259993Y464601D01*
X260000Y464501D01*
X260003Y464400D01*
X260002Y464300D01*
X259997Y464199D01*
X259988Y464099D01*
X259976Y463999D01*
X259959Y463899D01*
X259939Y463801D01*
X259915Y463703D01*
X259887Y463606D01*
X259855Y463511D01*
X259820Y463417D01*
X259781Y463324D01*
X259738Y463232D01*
X259692Y463143D01*
X259643Y463055D01*
X259590Y462970D01*
X259534Y462886D01*
X259474Y462805D01*
X259412Y462726D01*
X259346Y462649D01*
X259278Y462575D01*
X259207Y462504D01*
X259133Y462436D01*
X259056Y462370D01*
X258977Y462308D01*
X258896Y462248D01*
X256770Y460759D01*
X261559Y470452D02*
X271451Y463114D01*
X267939Y474919D01*
X278155Y467809D02*
X280814Y469670D01*
X280905Y469737D01*
X280995Y469806D01*
X281082Y469879D01*
X281166Y469955D01*
X281247Y470034D01*
X281326Y470115D01*
X281402Y470199D01*
X281475Y470286D01*
X281544Y470376D01*
X281611Y470467D01*
X281674Y470561D01*
X281734Y470657D01*
X281791Y470755D01*
X281844Y470855D01*
X281894Y470957D01*
X281940Y471061D01*
X281982Y471166D01*
X282021Y471272D01*
X282056Y471380D01*
X282087Y471489D01*
X282115Y471599D01*
X282138Y471710D01*
X282158Y471821D01*
X282174Y471933D01*
X282186Y472046D01*
X282194Y472159D01*
X282198Y472272D01*
X282198Y472386D01*
X282194Y472499D01*
X282186Y472612D01*
X282174Y472725D01*
X282158Y472837D01*
X282138Y472948D01*
X282115Y473059D01*
X282087Y473169D01*
X282056Y473278D01*
X282021Y473386D01*
X281982Y473492D01*
X281940Y473597D01*
X281894Y473701D01*
X281844Y473803D01*
X281791Y473903D01*
X281734Y474001D01*
X281674Y474097D01*
X281611Y474191D01*
X281544Y474282D01*
X281475Y474372D01*
X281402Y474459D01*
X281326Y474543D01*
X281247Y474624D01*
X281166Y474703D01*
X281082Y474779D01*
X280995Y474852D01*
X280906Y474921D01*
X280814Y474988D01*
X280720Y475051D01*
X280624Y475111D01*
X280526Y475168D01*
X280426Y475221D01*
X280324Y475271D01*
X280220Y475317D01*
X280115Y475359D01*
X280009Y475398D01*
X279901Y475433D01*
X279792Y475464D01*
X279682Y475492D01*
X279571Y475515D01*
X279460Y475535D01*
X279348Y475551D01*
X279235Y475563D01*
X279122Y475571D01*
X279009Y475575D01*
X278895Y475575D01*
X278782Y475571D01*
X278669Y475563D01*
X278556Y475551D01*
X278444Y475535D01*
X278333Y475515D01*
X278222Y475492D01*
X278112Y475464D01*
X278003Y475433D01*
X277895Y475398D01*
X277789Y475359D01*
X277684Y475317D01*
X277580Y475271D01*
X277478Y475221D01*
X277378Y475168D01*
X277280Y475111D01*
X277184Y475051D01*
X277090Y474988D01*
X274644Y479614D02*
X271453Y477380D01*
X274644Y479614D02*
X274728Y479670D01*
X274813Y479723D01*
X274901Y479772D01*
X274990Y479818D01*
X275082Y479861D01*
X275175Y479900D01*
X275269Y479935D01*
X275364Y479967D01*
X275461Y479995D01*
X275559Y480019D01*
X275657Y480039D01*
X275757Y480056D01*
X275857Y480068D01*
X275957Y480077D01*
X276058Y480082D01*
X276158Y480083D01*
X276259Y480080D01*
X276359Y480073D01*
X276459Y480062D01*
X276559Y480048D01*
X276658Y480029D01*
X276756Y480007D01*
X276853Y479981D01*
X276950Y479951D01*
X277045Y479918D01*
X277138Y479881D01*
X277230Y479840D01*
X277321Y479795D01*
X277409Y479748D01*
X277496Y479696D01*
X277580Y479642D01*
X277663Y479584D01*
X277743Y479523D01*
X277821Y479459D01*
X277896Y479392D01*
X277969Y479323D01*
X278038Y479250D01*
X278105Y479175D01*
X278169Y479097D01*
X278230Y479017D01*
X278288Y478934D01*
X278342Y478850D01*
X278394Y478763D01*
X278441Y478675D01*
X278486Y478584D01*
X278527Y478492D01*
X278564Y478398D01*
X278597Y478304D01*
X278627Y478207D01*
X278653Y478110D01*
X278675Y478012D01*
X278694Y477913D01*
X278708Y477813D01*
X278719Y477713D01*
X278726Y477613D01*
X278729Y477512D01*
X278728Y477412D01*
X278723Y477311D01*
X278714Y477211D01*
X278702Y477111D01*
X278685Y477011D01*
X278665Y476913D01*
X278641Y476815D01*
X278613Y476718D01*
X278581Y476623D01*
X278546Y476529D01*
X278507Y476436D01*
X278464Y476344D01*
X278418Y476255D01*
X278369Y476167D01*
X278316Y476082D01*
X278260Y475998D01*
X278200Y475917D01*
X278138Y475838D01*
X278072Y475761D01*
X278004Y475687D01*
X277933Y475616D01*
X277859Y475548D01*
X277782Y475482D01*
X277703Y475420D01*
X277622Y475360D01*
X275495Y473871D01*
D11*
X236128Y373279D03*
D12*
X235613Y373426D03*
D13*
X235023Y373573D03*
D14*
X234582Y373721D03*
D15*
X234066Y373868D03*
D16*
X233624Y374015D03*
D17*
X233035Y374163D03*
D18*
X232519Y374310D03*
D19*
X232077Y374457D03*
D20*
X231635Y374605D03*
D21*
X231561Y374752D03*
D22*
X231635Y374899D03*
D23*
X231709Y375047D03*
D24*
X231635Y375194D03*
D25*
X231709Y375341D03*
D26*
X231709Y375488D03*
D27*
X231782Y375636D03*
X231782Y375783D03*
D28*
X231782Y375930D03*
D29*
X231856Y376078D03*
D30*
X231856Y376225D03*
X231856Y376372D03*
D31*
X231930Y376520D03*
D32*
X231930Y376667D03*
D33*
X232003Y376814D03*
D34*
X231930Y376962D03*
D35*
X232003Y377109D03*
D36*
X232077Y377256D03*
D37*
X232077Y377404D03*
X232077Y377551D03*
D38*
X232151Y377698D03*
D39*
X232151Y377846D03*
D40*
X232224Y377993D03*
D41*
X232151Y378140D03*
D42*
X232224Y378288D03*
D43*
X232298Y378435D03*
D44*
X232298Y378582D03*
X232298Y378730D03*
D45*
X232298Y378877D03*
D46*
X232372Y379024D03*
X232372Y379171D03*
D47*
X232372Y379319D03*
D48*
X232445Y379466D03*
D49*
X232445Y379613D03*
X232445Y379761D03*
D50*
X232519Y379908D03*
D51*
X232519Y380055D03*
D52*
X232593Y380203D03*
D53*
X232519Y380350D03*
D54*
X232593Y380497D03*
D55*
X232666Y380645D03*
D56*
X253144Y380645D03*
D57*
X232666Y380792D03*
D58*
X252555Y380792D03*
D57*
X232666Y380939D03*
D59*
X252113Y380939D03*
D60*
X232666Y381087D03*
D61*
X251597Y381087D03*
D62*
X232740Y381234D03*
D63*
X251155Y381234D03*
D62*
X232740Y381381D03*
D64*
X250566Y381381D03*
D65*
X232666Y381529D03*
D66*
X250124Y381529D03*
D65*
X232666Y381676D03*
D67*
X249608Y381676D03*
D62*
X232593Y381823D03*
D68*
X249166Y381823D03*
D65*
X232519Y381971D03*
D20*
X249019Y381971D03*
D65*
X232519Y382118D03*
D22*
X249019Y382118D03*
D65*
X232372Y382265D03*
D23*
X249093Y382265D03*
D65*
X232372Y382413D03*
D24*
X249166Y382413D03*
D62*
X232298Y382560D03*
D25*
X249093Y382560D03*
D65*
X232224Y382707D03*
D69*
X249166Y382707D03*
D65*
X232224Y382854D03*
D27*
X249166Y382854D03*
D65*
X232077Y383002D03*
D70*
X249240Y383002D03*
D65*
X232077Y383149D03*
D70*
X249240Y383149D03*
D62*
X232003Y383296D03*
D29*
X249240Y383296D03*
D65*
X231930Y383444D03*
D71*
X249314Y383444D03*
D65*
X231930Y383591D03*
D31*
X249314Y383591D03*
D65*
X231782Y383738D03*
D31*
X249314Y383738D03*
D65*
X231782Y383886D03*
D72*
X249387Y383886D03*
D62*
X231709Y384033D03*
D33*
X249387Y384033D03*
D60*
X231782Y384180D03*
D34*
X249461Y384180D03*
D60*
X231782Y384328D03*
D35*
X249387Y384328D03*
D73*
X231782Y384475D03*
D74*
X249461Y384475D03*
D75*
X231856Y384622D03*
D76*
X249534Y384622D03*
D54*
X231856Y384770D03*
D77*
X249534Y384770D03*
D54*
X231856Y384917D03*
D77*
X249534Y384917D03*
D53*
X231930Y385064D03*
D78*
X249608Y385064D03*
D51*
X231930Y385212D03*
D40*
X249608Y385212D03*
D79*
X232003Y385359D03*
D40*
X249608Y385359D03*
D50*
X231930Y385506D03*
D42*
X249608Y385506D03*
D80*
X232003Y385654D03*
D43*
X249682Y385654D03*
D81*
X232077Y385801D03*
D82*
X249755Y385801D03*
D47*
X232077Y385948D03*
D83*
X249682Y385948D03*
D47*
X232077Y386096D03*
D84*
X249755Y386096D03*
D85*
X232151Y386243D03*
D46*
X249755Y386243D03*
D45*
X232151Y386390D03*
D85*
X249829Y386390D03*
D45*
X232151Y386537D03*
D85*
X249829Y386537D03*
D83*
X232151Y386685D03*
D48*
X249829Y386685D03*
D86*
X232224Y386832D03*
D81*
X249903Y386832D03*
D43*
X232298Y386979D03*
D50*
X249903Y386979D03*
D42*
X232224Y387127D03*
D50*
X249903Y387127D03*
D41*
X232298Y387274D03*
D79*
X249976Y387274D03*
D39*
X232298Y387421D03*
D52*
X249976Y387421D03*
D78*
X232372Y387569D03*
D53*
X250050Y387569D03*
D78*
X232372Y387716D03*
D54*
X249976Y387716D03*
D87*
X232372Y387863D03*
D88*
X250050Y387863D03*
D76*
X232445Y388011D03*
D75*
X250124Y388011D03*
D35*
X232445Y388158D03*
D89*
X250124Y388158D03*
D35*
X232445Y388305D03*
D89*
X250124Y388305D03*
D34*
X232519Y388453D03*
D62*
X250124Y388453D03*
D32*
X232519Y388600D03*
D65*
X250197Y388600D03*
D72*
X232593Y388747D03*
D62*
X250124Y388747D03*
D31*
X232519Y388895D03*
D65*
X250050Y388895D03*
D90*
X232593Y389042D03*
D65*
X250050Y389042D03*
D91*
X232666Y389189D03*
D62*
X249976Y389189D03*
D28*
X232666Y389337D03*
D65*
X249903Y389337D03*
D28*
X232666Y389484D03*
D65*
X249903Y389484D03*
D70*
X232740Y389631D03*
D65*
X249755Y389631D03*
D26*
X232740Y389779D03*
D65*
X249755Y389779D03*
D69*
X232814Y389926D03*
D62*
X249682Y389926D03*
D92*
X232740Y390073D03*
D65*
X249608Y390073D03*
D24*
X232814Y390220D03*
D65*
X249608Y390220D03*
D23*
X232887Y390368D03*
D65*
X249461Y390368D03*
D22*
X232814Y390515D03*
D65*
X249461Y390515D03*
D21*
X232887Y390662D03*
D62*
X249387Y390662D03*
D68*
X232814Y390810D03*
D65*
X249314Y390810D03*
D93*
X232298Y390957D03*
D65*
X249314Y390957D03*
D66*
X231709Y391104D03*
D65*
X249166Y391104D03*
D64*
X231267Y391252D03*
D65*
X249166Y391252D03*
D94*
X230751Y391399D03*
D60*
X249166Y391399D03*
D95*
X230309Y391546D03*
D89*
X249240Y391546D03*
D59*
X229720Y391694D03*
D89*
X249240Y391694D03*
D96*
X229204Y391841D03*
D97*
X249240Y391841D03*
D98*
X228762Y391988D03*
D55*
X249314Y391988D03*
D99*
X238559Y392136D03*
D54*
X249240Y392136D03*
D100*
X238044Y392283D03*
D53*
X249314Y392283D03*
D13*
X237528Y392430D03*
D52*
X249387Y392430D03*
D101*
X237012Y392578D03*
D79*
X249387Y392578D03*
D15*
X236570Y392725D03*
D79*
X249387Y392725D03*
D102*
X236055Y392872D03*
D80*
X249387Y392872D03*
D17*
X235539Y393020D03*
D103*
X249461Y393020D03*
D18*
X235023Y393167D03*
D48*
X249534Y393167D03*
D104*
X234508Y393314D03*
D47*
X249461Y393314D03*
D105*
X234066Y393462D03*
D85*
X249534Y393462D03*
D21*
X234066Y393609D03*
D46*
X249608Y393609D03*
D22*
X234140Y393756D03*
D84*
X249608Y393756D03*
D23*
X234213Y393903D03*
D84*
X249608Y393903D03*
D24*
X234140Y394051D03*
D86*
X249608Y394051D03*
D25*
X234213Y394198D03*
D43*
X249682Y394198D03*
D106*
X234213Y394345D03*
D42*
X249755Y394345D03*
D27*
X234287Y394493D03*
D41*
X249682Y394493D03*
D27*
X234287Y394640D03*
D40*
X249755Y394640D03*
D28*
X234287Y394787D03*
D78*
X249755Y394787D03*
D29*
X234361Y394935D03*
D38*
X249829Y394935D03*
D30*
X234361Y395082D03*
D38*
X249829Y395082D03*
D30*
X234361Y395229D03*
D107*
X249829Y395229D03*
D31*
X234434Y395377D03*
D74*
X249903Y395377D03*
D32*
X234434Y395524D03*
D34*
X249903Y395524D03*
D33*
X234508Y395671D03*
D34*
X249903Y395671D03*
X234434Y395819D03*
D33*
X249976Y395819D03*
D35*
X234508Y395966D03*
D72*
X249976Y395966D03*
D74*
X234582Y396113D03*
D72*
X249976Y396113D03*
D37*
X234582Y396261D03*
D90*
X249976Y396261D03*
D37*
X234582Y396408D03*
D71*
X250050Y396408D03*
D78*
X234582Y396555D03*
D29*
X250124Y396555D03*
D39*
X234655Y396703D03*
D28*
X250050Y396703D03*
D40*
X234729Y396850D03*
D70*
X250124Y396850D03*
D41*
X234655Y396997D03*
D26*
X250124Y396997D03*
D42*
X234729Y397145D03*
D108*
X250197Y397145D03*
D86*
X234729Y397292D03*
D108*
X250197Y397292D03*
D44*
X234802Y397439D03*
D24*
X250197Y397439D03*
D44*
X234802Y397586D03*
D23*
X250271Y397586D03*
D45*
X234802Y397734D03*
D22*
X250345Y397734D03*
D46*
X234876Y397881D03*
D21*
X250271Y397881D03*
D46*
X234876Y398028D03*
D105*
X250271Y398028D03*
D47*
X234876Y398176D03*
D109*
X249829Y398176D03*
D48*
X234950Y398323D03*
D110*
X249314Y398323D03*
D49*
X234950Y398470D03*
D17*
X248798Y398470D03*
D49*
X234950Y398618D03*
D111*
X248282Y398618D03*
D50*
X235023Y398765D03*
D112*
X247840Y398765D03*
D51*
X235023Y398912D03*
D113*
X247325Y398912D03*
D52*
X235097Y399060D03*
D13*
X246809Y399060D03*
D53*
X235023Y399207D03*
D114*
X246293Y399207D03*
D54*
X235097Y399354D03*
D11*
X245851Y399354D03*
D55*
X235171Y399502D03*
D57*
X235171Y399649D03*
X235171Y399796D03*
D60*
X235171Y399944D03*
D62*
X235244Y400091D03*
X235244Y400238D03*
D65*
X235171Y400386D03*
X235171Y400533D03*
X235023Y400680D03*
X235023Y400828D03*
D62*
X234950Y400975D03*
D65*
X234876Y401122D03*
X234876Y401269D03*
X234729Y401417D03*
X234729Y401564D03*
D62*
X234655Y401711D03*
D65*
X234582Y401859D03*
X234582Y402006D03*
D62*
X234508Y402153D03*
D65*
X234434Y402301D03*
X234434Y402448D03*
X234287Y402595D03*
X234287Y402743D03*
D62*
X234213Y402890D03*
D60*
X234287Y403037D03*
X234287Y403185D03*
D73*
X234287Y403332D03*
D75*
X234361Y403479D03*
D54*
X234361Y403627D03*
X234361Y403774D03*
D53*
X234434Y403921D03*
D51*
X234434Y404069D03*
D79*
X234508Y404216D03*
D50*
X234434Y404363D03*
D80*
X234508Y404511D03*
D81*
X234582Y404658D03*
D115*
X234508Y404805D03*
D47*
X234582Y404952D03*
D46*
X234582Y405100D03*
D45*
X234655Y405247D03*
X234655Y405394D03*
D83*
X234655Y405542D03*
D86*
X234729Y405689D03*
D42*
X234729Y405836D03*
X234729Y405984D03*
D41*
X234802Y406131D03*
D39*
X234802Y406278D03*
D78*
X234876Y406426D03*
X234876Y406573D03*
D87*
X234876Y406720D03*
D76*
X234950Y406868D03*
D35*
X234950Y407015D03*
X234950Y407162D03*
D34*
X235023Y407310D03*
D32*
X235023Y407457D03*
D72*
X235097Y407604D03*
D31*
X235023Y407752D03*
D90*
X235097Y407899D03*
D91*
X235171Y408046D03*
D28*
X235171Y408194D03*
X235171Y408341D03*
D27*
X235171Y408488D03*
D26*
X235244Y408635D03*
D69*
X235318Y408783D03*
D92*
X235244Y408930D03*
D24*
X235318Y409077D03*
D22*
X235318Y409225D03*
X235318Y409372D03*
D21*
X235392Y409519D03*
D116*
X235244Y409667D03*
D117*
X234729Y409814D03*
D66*
X234213Y409961D03*
D118*
X233698Y410109D03*
D94*
X233256Y410256D03*
D119*
X232740Y410403D03*
D59*
X232224Y410551D03*
D96*
X231709Y410698D03*
D120*
X231193Y410845D03*
D121*
X280603Y395296D02*
X290763Y395296D01*
X285683Y390216D02*
X285683Y400376D01*
X297100Y389369D02*
X302180Y389369D01*
X302296Y389371D01*
X302411Y389377D01*
X302526Y389387D01*
X302641Y389401D01*
X302755Y389418D01*
X302869Y389440D01*
X302982Y389465D01*
X303094Y389495D01*
X303205Y389528D01*
X303314Y389565D01*
X303423Y389605D01*
X303529Y389649D01*
X303635Y389697D01*
X303738Y389749D01*
X303840Y389804D01*
X303940Y389862D01*
X304038Y389924D01*
X304133Y389989D01*
X304227Y390057D01*
X304318Y390129D01*
X304406Y390203D01*
X304492Y390281D01*
X304575Y390361D01*
X304655Y390444D01*
X304733Y390530D01*
X304807Y390619D01*
X304879Y390709D01*
X304947Y390803D01*
X305012Y390898D01*
X305074Y390996D01*
X305132Y391096D01*
X305187Y391198D01*
X305239Y391301D01*
X305287Y391407D01*
X305331Y391513D01*
X305371Y391622D01*
X305408Y391731D01*
X305441Y391842D01*
X305471Y391954D01*
X305496Y392067D01*
X305518Y392181D01*
X305535Y392295D01*
X305549Y392410D01*
X305559Y392525D01*
X305565Y392640D01*
X305567Y392756D01*
X305566Y392756D02*
X305566Y394449D01*
X305567Y394449D02*
X305565Y394565D01*
X305559Y394680D01*
X305549Y394795D01*
X305535Y394910D01*
X305518Y395024D01*
X305496Y395138D01*
X305471Y395251D01*
X305441Y395363D01*
X305408Y395474D01*
X305371Y395583D01*
X305331Y395692D01*
X305287Y395798D01*
X305239Y395904D01*
X305187Y396007D01*
X305132Y396109D01*
X305074Y396209D01*
X305012Y396307D01*
X304947Y396402D01*
X304879Y396496D01*
X304807Y396586D01*
X304733Y396675D01*
X304655Y396761D01*
X304575Y396844D01*
X304492Y396924D01*
X304406Y397002D01*
X304317Y397076D01*
X304227Y397148D01*
X304133Y397216D01*
X304038Y397281D01*
X303940Y397343D01*
X303840Y397401D01*
X303738Y397456D01*
X303635Y397508D01*
X303529Y397556D01*
X303423Y397600D01*
X303314Y397640D01*
X303205Y397677D01*
X303094Y397710D01*
X302982Y397740D01*
X302869Y397765D01*
X302755Y397787D01*
X302641Y397804D01*
X302526Y397818D01*
X302411Y397828D01*
X302296Y397834D01*
X302180Y397836D01*
X297100Y397836D01*
X297100Y404609D01*
X305566Y404609D01*
X310925Y404609D02*
X316005Y389369D01*
X321085Y404609D01*
X382495Y397836D02*
X385035Y397836D01*
X385035Y389369D01*
X379955Y389369D01*
X379839Y389371D01*
X379724Y389377D01*
X379609Y389387D01*
X379494Y389401D01*
X379380Y389418D01*
X379266Y389440D01*
X379153Y389465D01*
X379041Y389495D01*
X378930Y389528D01*
X378821Y389565D01*
X378712Y389605D01*
X378606Y389649D01*
X378500Y389697D01*
X378397Y389749D01*
X378295Y389804D01*
X378195Y389862D01*
X378097Y389924D01*
X378002Y389989D01*
X377908Y390057D01*
X377818Y390129D01*
X377729Y390203D01*
X377643Y390281D01*
X377560Y390361D01*
X377480Y390444D01*
X377402Y390530D01*
X377328Y390619D01*
X377256Y390709D01*
X377188Y390803D01*
X377123Y390898D01*
X377061Y390996D01*
X377003Y391096D01*
X376948Y391198D01*
X376896Y391301D01*
X376848Y391407D01*
X376804Y391513D01*
X376764Y391622D01*
X376727Y391731D01*
X376694Y391842D01*
X376664Y391954D01*
X376639Y392067D01*
X376617Y392181D01*
X376600Y392295D01*
X376586Y392410D01*
X376576Y392525D01*
X376570Y392640D01*
X376568Y392756D01*
X376568Y401222D01*
X376570Y401338D01*
X376576Y401453D01*
X376586Y401568D01*
X376600Y401683D01*
X376617Y401797D01*
X376639Y401911D01*
X376664Y402024D01*
X376694Y402136D01*
X376727Y402247D01*
X376764Y402356D01*
X376804Y402465D01*
X376848Y402571D01*
X376896Y402677D01*
X376948Y402780D01*
X377003Y402882D01*
X377061Y402982D01*
X377123Y403080D01*
X377188Y403175D01*
X377256Y403269D01*
X377328Y403359D01*
X377402Y403448D01*
X377480Y403534D01*
X377560Y403617D01*
X377643Y403697D01*
X377729Y403775D01*
X377817Y403849D01*
X377908Y403921D01*
X378002Y403989D01*
X378097Y404054D01*
X378195Y404116D01*
X378295Y404174D01*
X378397Y404229D01*
X378500Y404281D01*
X378606Y404329D01*
X378712Y404373D01*
X378821Y404413D01*
X378930Y404450D01*
X379041Y404483D01*
X379153Y404513D01*
X379266Y404538D01*
X379379Y404560D01*
X379494Y404577D01*
X379609Y404591D01*
X379724Y404601D01*
X379839Y404607D01*
X379955Y404609D01*
X385035Y404609D01*
X392218Y404609D02*
X392218Y389369D01*
X400685Y389369D02*
X392218Y404609D01*
X400685Y404609D02*
X400685Y389369D01*
X407868Y389369D02*
X407868Y404609D01*
X412102Y404609D01*
X412230Y404607D01*
X412358Y404601D01*
X412485Y404592D01*
X412612Y404578D01*
X412739Y404561D01*
X412865Y404540D01*
X412990Y404515D01*
X413115Y404486D01*
X413239Y404454D01*
X413361Y404417D01*
X413483Y404377D01*
X413603Y404334D01*
X413722Y404287D01*
X413839Y404236D01*
X413955Y404182D01*
X414069Y404124D01*
X414181Y404063D01*
X414292Y403999D01*
X414400Y403931D01*
X414507Y403860D01*
X414611Y403785D01*
X414713Y403708D01*
X414812Y403628D01*
X414909Y403544D01*
X415003Y403458D01*
X415095Y403369D01*
X415184Y403277D01*
X415270Y403183D01*
X415354Y403086D01*
X415434Y402987D01*
X415511Y402885D01*
X415586Y402781D01*
X415657Y402674D01*
X415725Y402566D01*
X415789Y402455D01*
X415850Y402343D01*
X415908Y402229D01*
X415962Y402113D01*
X416013Y401996D01*
X416060Y401877D01*
X416103Y401757D01*
X416143Y401635D01*
X416180Y401513D01*
X416212Y401389D01*
X416241Y401264D01*
X416266Y401139D01*
X416287Y401013D01*
X416304Y400886D01*
X416318Y400759D01*
X416327Y400632D01*
X416333Y400504D01*
X416335Y400376D01*
X416335Y393602D01*
X416333Y393474D01*
X416327Y393346D01*
X416318Y393219D01*
X416304Y393092D01*
X416287Y392965D01*
X416266Y392839D01*
X416241Y392714D01*
X416212Y392589D01*
X416180Y392465D01*
X416143Y392343D01*
X416103Y392221D01*
X416060Y392101D01*
X416013Y391982D01*
X415962Y391865D01*
X415908Y391749D01*
X415850Y391635D01*
X415789Y391523D01*
X415725Y391412D01*
X415657Y391304D01*
X415586Y391197D01*
X415511Y391093D01*
X415434Y390991D01*
X415354Y390892D01*
X415270Y390795D01*
X415184Y390701D01*
X415095Y390609D01*
X415003Y390520D01*
X414909Y390434D01*
X414812Y390350D01*
X414713Y390270D01*
X414611Y390193D01*
X414507Y390118D01*
X414400Y390047D01*
X414292Y389979D01*
X414181Y389915D01*
X414069Y389854D01*
X413955Y389796D01*
X413839Y389742D01*
X413722Y389691D01*
X413603Y389644D01*
X413483Y389601D01*
X413361Y389561D01*
X413239Y389524D01*
X413115Y389492D01*
X412990Y389463D01*
X412865Y389438D01*
X412739Y389417D01*
X412612Y389400D01*
X412485Y389386D01*
X412358Y389377D01*
X412230Y389371D01*
X412102Y389369D01*
X407868Y389369D01*
D122*
X379301Y355103D02*
X377213Y355103D01*
X377124Y355105D01*
X377036Y355111D01*
X376948Y355120D01*
X376860Y355133D01*
X376773Y355150D01*
X376687Y355170D01*
X376602Y355195D01*
X376517Y355222D01*
X376434Y355254D01*
X376353Y355288D01*
X376273Y355327D01*
X376195Y355368D01*
X376118Y355413D01*
X376044Y355461D01*
X375971Y355512D01*
X375901Y355566D01*
X375834Y355624D01*
X375768Y355684D01*
X375706Y355746D01*
X375646Y355812D01*
X375588Y355879D01*
X375534Y355949D01*
X375483Y356022D01*
X375435Y356096D01*
X375390Y356173D01*
X375349Y356251D01*
X375310Y356331D01*
X375276Y356412D01*
X375244Y356495D01*
X375217Y356580D01*
X375192Y356665D01*
X375172Y356751D01*
X375155Y356838D01*
X375142Y356926D01*
X375133Y357014D01*
X375127Y357102D01*
X375125Y357191D01*
X375124Y357191D02*
X375124Y362413D01*
X375125Y362413D02*
X375127Y362504D01*
X375133Y362595D01*
X375143Y362686D01*
X375157Y362776D01*
X375174Y362865D01*
X375196Y362953D01*
X375222Y363041D01*
X375251Y363127D01*
X375284Y363212D01*
X375321Y363295D01*
X375361Y363377D01*
X375405Y363457D01*
X375452Y363535D01*
X375503Y363611D01*
X375556Y363684D01*
X375613Y363755D01*
X375674Y363824D01*
X375737Y363889D01*
X375802Y363952D01*
X375871Y364012D01*
X375942Y364070D01*
X376015Y364123D01*
X376091Y364174D01*
X376169Y364221D01*
X376249Y364265D01*
X376331Y364305D01*
X376414Y364342D01*
X376499Y364375D01*
X376585Y364404D01*
X376673Y364430D01*
X376761Y364452D01*
X376850Y364469D01*
X376940Y364483D01*
X377031Y364493D01*
X377122Y364499D01*
X377213Y364501D01*
X379301Y364501D01*
X385642Y364502D02*
X385737Y364500D01*
X385831Y364494D01*
X385925Y364485D01*
X386019Y364472D01*
X386112Y364455D01*
X386204Y364434D01*
X386296Y364409D01*
X386386Y364381D01*
X386475Y364349D01*
X386563Y364314D01*
X386649Y364275D01*
X386734Y364233D01*
X386817Y364187D01*
X386898Y364138D01*
X386977Y364086D01*
X387054Y364031D01*
X387128Y363972D01*
X387200Y363911D01*
X387270Y363847D01*
X387337Y363780D01*
X387401Y363710D01*
X387462Y363638D01*
X387521Y363564D01*
X387576Y363487D01*
X387628Y363408D01*
X387677Y363327D01*
X387723Y363244D01*
X387765Y363159D01*
X387804Y363073D01*
X387839Y362985D01*
X387871Y362896D01*
X387899Y362806D01*
X387924Y362714D01*
X387945Y362622D01*
X387962Y362529D01*
X387975Y362435D01*
X387984Y362341D01*
X387990Y362247D01*
X387992Y362152D01*
X385642Y364501D02*
X385534Y364499D01*
X385425Y364493D01*
X385317Y364483D01*
X385210Y364470D01*
X385103Y364452D01*
X384996Y364431D01*
X384891Y364406D01*
X384786Y364377D01*
X384683Y364345D01*
X384581Y364308D01*
X384480Y364268D01*
X384381Y364225D01*
X384283Y364178D01*
X384187Y364127D01*
X384093Y364073D01*
X384001Y364016D01*
X383911Y363955D01*
X383823Y363891D01*
X383738Y363825D01*
X383655Y363755D01*
X383575Y363682D01*
X383497Y363606D01*
X383422Y363528D01*
X383350Y363447D01*
X383281Y363363D01*
X383215Y363277D01*
X383152Y363189D01*
X383093Y363098D01*
X383036Y363006D01*
X382983Y362911D01*
X382934Y362815D01*
X382888Y362716D01*
X382845Y362617D01*
X382806Y362515D01*
X382771Y362413D01*
X387208Y360324D02*
X387277Y360393D01*
X387343Y360464D01*
X387407Y360537D01*
X387468Y360613D01*
X387526Y360692D01*
X387580Y360772D01*
X387632Y360855D01*
X387680Y360939D01*
X387726Y361025D01*
X387767Y361113D01*
X387806Y361203D01*
X387841Y361294D01*
X387872Y361386D01*
X387900Y361479D01*
X387924Y361573D01*
X387944Y361668D01*
X387961Y361764D01*
X387974Y361861D01*
X387983Y361958D01*
X387989Y362055D01*
X387991Y362152D01*
X387208Y360324D02*
X382770Y355103D01*
X387991Y355103D01*
D121*
X405800Y410500D02*
X284200Y410500D01*
X405800Y410500D02*
X405800Y495500D01*
X284200Y495500D02*
X284200Y410500D01*
X405000Y495500D02*
X405800Y495500D01*
X405000Y495500D02*
X383000Y495500D01*
X284200Y495500D01*
D123*
X344800Y490750D03*
D122*
X266738Y421466D02*
X266738Y412068D01*
X266738Y421466D02*
X269348Y421466D01*
X269348Y421467D02*
X269449Y421465D01*
X269550Y421459D01*
X269651Y421449D01*
X269751Y421436D01*
X269851Y421418D01*
X269950Y421397D01*
X270048Y421371D01*
X270145Y421342D01*
X270241Y421310D01*
X270335Y421273D01*
X270428Y421233D01*
X270520Y421189D01*
X270609Y421142D01*
X270697Y421091D01*
X270783Y421037D01*
X270866Y420980D01*
X270948Y420920D01*
X271026Y420856D01*
X271103Y420790D01*
X271176Y420720D01*
X271247Y420648D01*
X271315Y420573D01*
X271380Y420495D01*
X271442Y420415D01*
X271501Y420333D01*
X271557Y420248D01*
X271609Y420161D01*
X271658Y420073D01*
X271704Y419982D01*
X271745Y419890D01*
X271784Y419796D01*
X271818Y419701D01*
X271849Y419605D01*
X271876Y419507D01*
X271900Y419409D01*
X271919Y419309D01*
X271935Y419209D01*
X271947Y419109D01*
X271955Y419008D01*
X271959Y418907D01*
X271959Y418805D01*
X271955Y418704D01*
X271947Y418603D01*
X271935Y418503D01*
X271919Y418403D01*
X271900Y418303D01*
X271876Y418205D01*
X271849Y418107D01*
X271818Y418011D01*
X271784Y417916D01*
X271745Y417822D01*
X271704Y417730D01*
X271658Y417639D01*
X271609Y417551D01*
X271557Y417464D01*
X271501Y417379D01*
X271442Y417297D01*
X271380Y417217D01*
X271315Y417139D01*
X271247Y417064D01*
X271176Y416992D01*
X271103Y416922D01*
X271026Y416856D01*
X270948Y416792D01*
X270866Y416732D01*
X270783Y416675D01*
X270697Y416621D01*
X270609Y416570D01*
X270520Y416523D01*
X270428Y416479D01*
X270335Y416439D01*
X270241Y416402D01*
X270145Y416370D01*
X270048Y416341D01*
X269950Y416315D01*
X269851Y416294D01*
X269751Y416276D01*
X269651Y416263D01*
X269550Y416253D01*
X269449Y416247D01*
X269348Y416245D01*
X266738Y416245D01*
X278317Y421467D02*
X278412Y421465D01*
X278506Y421459D01*
X278600Y421450D01*
X278694Y421437D01*
X278787Y421420D01*
X278879Y421399D01*
X278971Y421374D01*
X279061Y421346D01*
X279150Y421314D01*
X279238Y421279D01*
X279324Y421240D01*
X279409Y421198D01*
X279492Y421152D01*
X279573Y421103D01*
X279652Y421051D01*
X279729Y420996D01*
X279803Y420937D01*
X279875Y420876D01*
X279945Y420812D01*
X280012Y420745D01*
X280076Y420675D01*
X280137Y420603D01*
X280196Y420529D01*
X280251Y420452D01*
X280303Y420373D01*
X280352Y420292D01*
X280398Y420209D01*
X280440Y420124D01*
X280479Y420038D01*
X280514Y419950D01*
X280546Y419861D01*
X280574Y419771D01*
X280599Y419679D01*
X280620Y419587D01*
X280637Y419494D01*
X280650Y419400D01*
X280659Y419306D01*
X280665Y419212D01*
X280667Y419117D01*
X278317Y421466D02*
X278209Y421464D01*
X278100Y421458D01*
X277992Y421448D01*
X277885Y421435D01*
X277778Y421417D01*
X277671Y421396D01*
X277566Y421371D01*
X277461Y421342D01*
X277358Y421310D01*
X277256Y421273D01*
X277155Y421233D01*
X277056Y421190D01*
X276958Y421143D01*
X276862Y421092D01*
X276768Y421038D01*
X276676Y420981D01*
X276586Y420920D01*
X276498Y420856D01*
X276413Y420790D01*
X276330Y420720D01*
X276250Y420647D01*
X276172Y420571D01*
X276097Y420493D01*
X276025Y420412D01*
X275956Y420328D01*
X275890Y420242D01*
X275827Y420154D01*
X275768Y420063D01*
X275711Y419971D01*
X275658Y419876D01*
X275609Y419780D01*
X275563Y419681D01*
X275520Y419582D01*
X275481Y419480D01*
X275446Y419378D01*
X279884Y417289D02*
X279953Y417358D01*
X280019Y417429D01*
X280083Y417502D01*
X280144Y417578D01*
X280202Y417657D01*
X280256Y417737D01*
X280308Y417820D01*
X280356Y417904D01*
X280402Y417990D01*
X280443Y418078D01*
X280482Y418168D01*
X280517Y418259D01*
X280548Y418351D01*
X280576Y418444D01*
X280600Y418538D01*
X280620Y418633D01*
X280637Y418729D01*
X280650Y418826D01*
X280659Y418923D01*
X280665Y419020D01*
X280667Y419117D01*
X279883Y417290D02*
X275445Y412068D01*
X280667Y412068D01*
D124*
X402524Y246618D02*
X424524Y246618D01*
X424524Y281618D02*
X402524Y281618D01*
D122*
X444769Y271357D02*
X444769Y261959D01*
X444769Y271357D02*
X448946Y271357D01*
X448946Y267180D02*
X444769Y267180D01*
X452372Y269269D02*
X454982Y271357D01*
X454982Y261959D01*
X452372Y261959D02*
X457593Y261959D01*
D125*
X376000Y334732D02*
X376000Y340500D01*
X376000Y299500D02*
X370232Y299500D01*
X340768Y340500D02*
X335000Y340500D01*
X335000Y299500D02*
X340768Y299500D01*
X376000Y299500D02*
X376000Y305268D01*
X376000Y340500D02*
X370232Y340500D01*
X335000Y340500D02*
X335000Y334732D01*
X335000Y305268D02*
X335000Y299500D01*
D121*
X325856Y329652D02*
X325858Y329734D01*
X325864Y329816D01*
X325874Y329898D01*
X325888Y329979D01*
X325906Y330060D01*
X325927Y330139D01*
X325953Y330218D01*
X325982Y330295D01*
X326015Y330370D01*
X326051Y330444D01*
X326091Y330516D01*
X326135Y330586D01*
X326181Y330654D01*
X326231Y330719D01*
X326285Y330782D01*
X326341Y330842D01*
X326400Y330900D01*
X326461Y330954D01*
X326525Y331006D01*
X326592Y331054D01*
X326661Y331099D01*
X326732Y331141D01*
X326805Y331180D01*
X326879Y331214D01*
X326956Y331245D01*
X327033Y331273D01*
X327112Y331296D01*
X327192Y331316D01*
X327273Y331332D01*
X327355Y331344D01*
X327437Y331352D01*
X327519Y331356D01*
X327601Y331356D01*
X327683Y331352D01*
X327765Y331344D01*
X327847Y331332D01*
X327928Y331316D01*
X328008Y331296D01*
X328087Y331273D01*
X328164Y331245D01*
X328241Y331214D01*
X328315Y331180D01*
X328388Y331141D01*
X328459Y331099D01*
X328528Y331054D01*
X328595Y331006D01*
X328659Y330954D01*
X328720Y330900D01*
X328779Y330842D01*
X328835Y330782D01*
X328889Y330719D01*
X328939Y330654D01*
X328985Y330586D01*
X329029Y330516D01*
X329069Y330444D01*
X329105Y330370D01*
X329138Y330295D01*
X329167Y330218D01*
X329193Y330139D01*
X329214Y330060D01*
X329232Y329979D01*
X329246Y329898D01*
X329256Y329816D01*
X329262Y329734D01*
X329264Y329652D01*
X329262Y329570D01*
X329256Y329488D01*
X329246Y329406D01*
X329232Y329325D01*
X329214Y329244D01*
X329193Y329165D01*
X329167Y329086D01*
X329138Y329009D01*
X329105Y328934D01*
X329069Y328860D01*
X329029Y328788D01*
X328985Y328718D01*
X328939Y328650D01*
X328889Y328585D01*
X328835Y328522D01*
X328779Y328462D01*
X328720Y328404D01*
X328659Y328350D01*
X328595Y328298D01*
X328528Y328250D01*
X328459Y328205D01*
X328388Y328163D01*
X328315Y328124D01*
X328241Y328090D01*
X328164Y328059D01*
X328087Y328031D01*
X328008Y328008D01*
X327928Y327988D01*
X327847Y327972D01*
X327765Y327960D01*
X327683Y327952D01*
X327601Y327948D01*
X327519Y327948D01*
X327437Y327952D01*
X327355Y327960D01*
X327273Y327972D01*
X327192Y327988D01*
X327112Y328008D01*
X327033Y328031D01*
X326956Y328059D01*
X326879Y328090D01*
X326805Y328124D01*
X326732Y328163D01*
X326661Y328205D01*
X326592Y328250D01*
X326525Y328298D01*
X326461Y328350D01*
X326400Y328404D01*
X326341Y328462D01*
X326285Y328522D01*
X326231Y328585D01*
X326181Y328650D01*
X326135Y328718D01*
X326091Y328788D01*
X326051Y328860D01*
X326015Y328934D01*
X325982Y329009D01*
X325953Y329086D01*
X325927Y329165D01*
X325906Y329244D01*
X325888Y329325D01*
X325874Y329406D01*
X325864Y329488D01*
X325858Y329570D01*
X325856Y329652D01*
D10*
X310044Y334827D02*
X310044Y341431D01*
X310044Y334827D02*
X310046Y334727D01*
X310052Y334628D01*
X310062Y334528D01*
X310075Y334430D01*
X310093Y334331D01*
X310114Y334234D01*
X310139Y334138D01*
X310168Y334042D01*
X310201Y333948D01*
X310237Y333855D01*
X310277Y333764D01*
X310321Y333674D01*
X310368Y333586D01*
X310418Y333500D01*
X310472Y333416D01*
X310529Y333334D01*
X310589Y333255D01*
X310653Y333177D01*
X310719Y333103D01*
X310788Y333031D01*
X310860Y332962D01*
X310934Y332896D01*
X311012Y332832D01*
X311091Y332772D01*
X311173Y332715D01*
X311257Y332661D01*
X311343Y332611D01*
X311431Y332564D01*
X311521Y332520D01*
X311612Y332480D01*
X311705Y332444D01*
X311799Y332411D01*
X311895Y332382D01*
X311991Y332357D01*
X312088Y332336D01*
X312187Y332318D01*
X312285Y332305D01*
X312385Y332295D01*
X312484Y332289D01*
X312584Y332287D01*
X312684Y332289D01*
X312783Y332295D01*
X312883Y332305D01*
X312981Y332318D01*
X313080Y332336D01*
X313177Y332357D01*
X313273Y332382D01*
X313369Y332411D01*
X313463Y332444D01*
X313556Y332480D01*
X313647Y332520D01*
X313737Y332564D01*
X313825Y332611D01*
X313911Y332661D01*
X313995Y332715D01*
X314077Y332772D01*
X314156Y332832D01*
X314234Y332896D01*
X314308Y332962D01*
X314380Y333031D01*
X314449Y333103D01*
X314515Y333177D01*
X314579Y333255D01*
X314639Y333334D01*
X314696Y333416D01*
X314750Y333500D01*
X314800Y333586D01*
X314847Y333674D01*
X314891Y333764D01*
X314931Y333855D01*
X314967Y333948D01*
X315000Y334042D01*
X315029Y334138D01*
X315054Y334234D01*
X315075Y334331D01*
X315093Y334430D01*
X315106Y334528D01*
X315116Y334628D01*
X315122Y334727D01*
X315124Y334827D01*
X315124Y341431D01*
X319493Y339399D02*
X322033Y341431D01*
X322033Y332287D01*
X319493Y332287D02*
X324573Y332287D01*
D122*
X349301Y253711D02*
X351389Y253711D01*
X349301Y253711D02*
X349212Y253713D01*
X349124Y253719D01*
X349036Y253728D01*
X348948Y253741D01*
X348861Y253758D01*
X348775Y253778D01*
X348690Y253803D01*
X348605Y253830D01*
X348522Y253862D01*
X348441Y253896D01*
X348361Y253935D01*
X348283Y253976D01*
X348206Y254021D01*
X348132Y254069D01*
X348059Y254120D01*
X347989Y254174D01*
X347922Y254232D01*
X347856Y254292D01*
X347794Y254354D01*
X347734Y254420D01*
X347676Y254487D01*
X347622Y254557D01*
X347571Y254630D01*
X347523Y254704D01*
X347478Y254781D01*
X347437Y254859D01*
X347398Y254939D01*
X347364Y255020D01*
X347332Y255103D01*
X347305Y255188D01*
X347280Y255273D01*
X347260Y255359D01*
X347243Y255446D01*
X347230Y255534D01*
X347221Y255622D01*
X347215Y255710D01*
X347213Y255799D01*
X347212Y255799D02*
X347212Y261021D01*
X347213Y261021D02*
X347215Y261112D01*
X347221Y261203D01*
X347231Y261294D01*
X347245Y261384D01*
X347262Y261473D01*
X347284Y261561D01*
X347310Y261649D01*
X347339Y261735D01*
X347372Y261820D01*
X347409Y261903D01*
X347449Y261985D01*
X347493Y262065D01*
X347540Y262143D01*
X347591Y262219D01*
X347644Y262292D01*
X347701Y262363D01*
X347762Y262432D01*
X347825Y262497D01*
X347890Y262560D01*
X347959Y262620D01*
X348030Y262678D01*
X348103Y262731D01*
X348179Y262782D01*
X348257Y262829D01*
X348337Y262873D01*
X348419Y262913D01*
X348502Y262950D01*
X348587Y262983D01*
X348673Y263012D01*
X348761Y263038D01*
X348849Y263060D01*
X348938Y263077D01*
X349028Y263091D01*
X349119Y263101D01*
X349210Y263107D01*
X349301Y263109D01*
X351389Y263109D01*
X354858Y253711D02*
X357468Y253711D01*
X357569Y253713D01*
X357670Y253719D01*
X357771Y253729D01*
X357871Y253742D01*
X357971Y253760D01*
X358070Y253781D01*
X358168Y253807D01*
X358265Y253836D01*
X358361Y253868D01*
X358455Y253905D01*
X358548Y253945D01*
X358640Y253989D01*
X358729Y254036D01*
X358817Y254087D01*
X358903Y254141D01*
X358986Y254198D01*
X359068Y254258D01*
X359146Y254322D01*
X359223Y254388D01*
X359296Y254458D01*
X359367Y254530D01*
X359435Y254605D01*
X359500Y254683D01*
X359562Y254763D01*
X359621Y254845D01*
X359677Y254930D01*
X359729Y255016D01*
X359778Y255105D01*
X359824Y255196D01*
X359865Y255288D01*
X359904Y255382D01*
X359938Y255477D01*
X359969Y255573D01*
X359996Y255671D01*
X360020Y255769D01*
X360039Y255869D01*
X360055Y255969D01*
X360067Y256069D01*
X360075Y256170D01*
X360079Y256271D01*
X360079Y256373D01*
X360075Y256474D01*
X360067Y256575D01*
X360055Y256675D01*
X360039Y256775D01*
X360020Y256875D01*
X359996Y256973D01*
X359969Y257071D01*
X359938Y257167D01*
X359904Y257262D01*
X359865Y257356D01*
X359824Y257448D01*
X359778Y257539D01*
X359729Y257627D01*
X359677Y257714D01*
X359621Y257799D01*
X359562Y257881D01*
X359500Y257961D01*
X359435Y258039D01*
X359367Y258114D01*
X359296Y258186D01*
X359223Y258256D01*
X359146Y258322D01*
X359068Y258386D01*
X358986Y258446D01*
X358903Y258503D01*
X358817Y258557D01*
X358729Y258608D01*
X358640Y258655D01*
X358548Y258699D01*
X358455Y258739D01*
X358361Y258776D01*
X358265Y258808D01*
X358168Y258837D01*
X358070Y258863D01*
X357971Y258884D01*
X357871Y258902D01*
X357771Y258915D01*
X357670Y258925D01*
X357569Y258931D01*
X357468Y258933D01*
X357991Y263109D02*
X354858Y263109D01*
X357991Y263109D02*
X358081Y263107D01*
X358170Y263101D01*
X358260Y263092D01*
X358349Y263078D01*
X358437Y263061D01*
X358524Y263040D01*
X358611Y263015D01*
X358696Y262986D01*
X358780Y262954D01*
X358862Y262919D01*
X358943Y262879D01*
X359022Y262837D01*
X359099Y262791D01*
X359174Y262741D01*
X359247Y262689D01*
X359318Y262633D01*
X359386Y262575D01*
X359451Y262513D01*
X359514Y262449D01*
X359574Y262382D01*
X359631Y262313D01*
X359685Y262241D01*
X359736Y262167D01*
X359784Y262091D01*
X359828Y262013D01*
X359869Y261933D01*
X359907Y261851D01*
X359941Y261768D01*
X359971Y261683D01*
X359998Y261597D01*
X360021Y261511D01*
X360040Y261423D01*
X360055Y261334D01*
X360067Y261245D01*
X360075Y261156D01*
X360079Y261066D01*
X360079Y260976D01*
X360075Y260886D01*
X360067Y260797D01*
X360055Y260708D01*
X360040Y260619D01*
X360021Y260531D01*
X359998Y260445D01*
X359971Y260359D01*
X359941Y260274D01*
X359907Y260191D01*
X359869Y260109D01*
X359828Y260029D01*
X359784Y259951D01*
X359736Y259875D01*
X359685Y259801D01*
X359631Y259729D01*
X359574Y259660D01*
X359514Y259593D01*
X359451Y259529D01*
X359386Y259467D01*
X359318Y259409D01*
X359247Y259353D01*
X359174Y259301D01*
X359099Y259251D01*
X359022Y259205D01*
X358943Y259163D01*
X358862Y259123D01*
X358780Y259088D01*
X358696Y259056D01*
X358611Y259027D01*
X358524Y259002D01*
X358437Y258981D01*
X358349Y258964D01*
X358260Y258950D01*
X358170Y258941D01*
X358081Y258935D01*
X357991Y258933D01*
X357991Y258932D02*
X355902Y258932D01*
D121*
X325008Y245476D02*
X325008Y321476D01*
X325008Y245476D02*
X249008Y245476D01*
X249008Y321476D01*
X325008Y321476D01*
D122*
X249193Y325377D02*
X249193Y334775D01*
X249193Y325377D02*
X253370Y325377D01*
X262018Y332426D02*
X262016Y332521D01*
X262010Y332615D01*
X262001Y332709D01*
X261988Y332803D01*
X261971Y332896D01*
X261950Y332988D01*
X261925Y333080D01*
X261897Y333170D01*
X261865Y333259D01*
X261830Y333347D01*
X261791Y333433D01*
X261749Y333518D01*
X261703Y333601D01*
X261654Y333682D01*
X261602Y333761D01*
X261547Y333838D01*
X261488Y333912D01*
X261427Y333984D01*
X261363Y334054D01*
X261296Y334121D01*
X261226Y334185D01*
X261154Y334246D01*
X261080Y334305D01*
X261003Y334360D01*
X260924Y334412D01*
X260843Y334461D01*
X260760Y334507D01*
X260675Y334549D01*
X260589Y334588D01*
X260501Y334623D01*
X260412Y334655D01*
X260322Y334683D01*
X260230Y334708D01*
X260138Y334729D01*
X260045Y334746D01*
X259951Y334759D01*
X259857Y334768D01*
X259763Y334774D01*
X259668Y334776D01*
X259668Y334775D02*
X259560Y334773D01*
X259451Y334767D01*
X259343Y334757D01*
X259236Y334744D01*
X259129Y334726D01*
X259022Y334705D01*
X258917Y334680D01*
X258812Y334651D01*
X258709Y334619D01*
X258607Y334582D01*
X258506Y334542D01*
X258407Y334499D01*
X258309Y334452D01*
X258213Y334401D01*
X258119Y334347D01*
X258027Y334290D01*
X257937Y334229D01*
X257849Y334165D01*
X257764Y334099D01*
X257681Y334029D01*
X257601Y333956D01*
X257523Y333880D01*
X257448Y333802D01*
X257376Y333721D01*
X257307Y333637D01*
X257241Y333551D01*
X257178Y333463D01*
X257119Y333372D01*
X257062Y333280D01*
X257009Y333185D01*
X256960Y333089D01*
X256914Y332990D01*
X256871Y332891D01*
X256832Y332789D01*
X256797Y332687D01*
X261234Y330598D02*
X261303Y330667D01*
X261369Y330738D01*
X261433Y330811D01*
X261494Y330887D01*
X261552Y330966D01*
X261606Y331046D01*
X261658Y331129D01*
X261706Y331213D01*
X261752Y331299D01*
X261793Y331387D01*
X261832Y331477D01*
X261867Y331568D01*
X261898Y331660D01*
X261926Y331753D01*
X261950Y331847D01*
X261970Y331942D01*
X261987Y332038D01*
X262000Y332135D01*
X262009Y332232D01*
X262015Y332329D01*
X262017Y332426D01*
X261234Y330598D02*
X256796Y325377D01*
X262017Y325377D01*
D125*
X324620Y374348D02*
X324620Y399748D01*
D122*
X378101Y368797D02*
X380189Y368797D01*
X378101Y368797D02*
X378012Y368799D01*
X377924Y368805D01*
X377836Y368814D01*
X377748Y368827D01*
X377661Y368844D01*
X377575Y368864D01*
X377490Y368889D01*
X377405Y368916D01*
X377322Y368948D01*
X377241Y368982D01*
X377161Y369021D01*
X377083Y369062D01*
X377006Y369107D01*
X376932Y369155D01*
X376859Y369206D01*
X376789Y369260D01*
X376722Y369318D01*
X376656Y369378D01*
X376594Y369440D01*
X376534Y369506D01*
X376476Y369573D01*
X376422Y369643D01*
X376371Y369716D01*
X376323Y369790D01*
X376278Y369867D01*
X376237Y369945D01*
X376198Y370025D01*
X376164Y370106D01*
X376132Y370189D01*
X376105Y370274D01*
X376080Y370359D01*
X376060Y370445D01*
X376043Y370532D01*
X376030Y370620D01*
X376021Y370708D01*
X376015Y370796D01*
X376013Y370885D01*
X376012Y370885D02*
X376012Y376107D01*
X376013Y376107D02*
X376015Y376198D01*
X376021Y376289D01*
X376031Y376380D01*
X376045Y376470D01*
X376062Y376559D01*
X376084Y376647D01*
X376110Y376735D01*
X376139Y376821D01*
X376172Y376906D01*
X376209Y376989D01*
X376249Y377071D01*
X376293Y377151D01*
X376340Y377229D01*
X376391Y377305D01*
X376444Y377378D01*
X376501Y377449D01*
X376562Y377518D01*
X376625Y377583D01*
X376690Y377646D01*
X376759Y377706D01*
X376830Y377764D01*
X376903Y377817D01*
X376979Y377868D01*
X377057Y377915D01*
X377137Y377959D01*
X377219Y377999D01*
X377302Y378036D01*
X377387Y378069D01*
X377473Y378098D01*
X377561Y378124D01*
X377649Y378146D01*
X377738Y378163D01*
X377828Y378177D01*
X377919Y378187D01*
X378010Y378193D01*
X378101Y378195D01*
X380189Y378195D01*
X385746Y378195D02*
X383658Y370885D01*
X388879Y370885D01*
X387313Y372974D02*
X387313Y368797D01*
X427482Y342793D02*
X427482Y333395D01*
X427482Y342793D02*
X430093Y342793D01*
X430093Y342794D02*
X430194Y342792D01*
X430295Y342786D01*
X430396Y342776D01*
X430496Y342763D01*
X430596Y342745D01*
X430695Y342724D01*
X430793Y342698D01*
X430890Y342669D01*
X430986Y342637D01*
X431080Y342600D01*
X431173Y342560D01*
X431265Y342516D01*
X431354Y342469D01*
X431442Y342418D01*
X431528Y342364D01*
X431611Y342307D01*
X431693Y342247D01*
X431771Y342183D01*
X431848Y342117D01*
X431921Y342047D01*
X431992Y341975D01*
X432060Y341900D01*
X432125Y341822D01*
X432187Y341742D01*
X432246Y341660D01*
X432302Y341575D01*
X432354Y341488D01*
X432403Y341400D01*
X432449Y341309D01*
X432490Y341217D01*
X432529Y341123D01*
X432563Y341028D01*
X432594Y340932D01*
X432621Y340834D01*
X432645Y340736D01*
X432664Y340636D01*
X432680Y340536D01*
X432692Y340436D01*
X432700Y340335D01*
X432704Y340234D01*
X432704Y340132D01*
X432700Y340031D01*
X432692Y339930D01*
X432680Y339830D01*
X432664Y339730D01*
X432645Y339630D01*
X432621Y339532D01*
X432594Y339434D01*
X432563Y339338D01*
X432529Y339243D01*
X432490Y339149D01*
X432449Y339057D01*
X432403Y338966D01*
X432354Y338878D01*
X432302Y338791D01*
X432246Y338706D01*
X432187Y338624D01*
X432125Y338544D01*
X432060Y338466D01*
X431992Y338391D01*
X431921Y338319D01*
X431848Y338249D01*
X431771Y338183D01*
X431693Y338119D01*
X431611Y338059D01*
X431528Y338002D01*
X431442Y337948D01*
X431354Y337897D01*
X431265Y337850D01*
X431173Y337806D01*
X431080Y337766D01*
X430986Y337729D01*
X430890Y337697D01*
X430793Y337668D01*
X430695Y337642D01*
X430596Y337621D01*
X430496Y337603D01*
X430396Y337590D01*
X430295Y337580D01*
X430194Y337574D01*
X430093Y337572D01*
X427482Y337572D01*
X430615Y337572D02*
X432703Y333395D01*
X436569Y333395D02*
X439180Y333395D01*
X439281Y333397D01*
X439382Y333403D01*
X439483Y333413D01*
X439583Y333426D01*
X439683Y333444D01*
X439782Y333465D01*
X439880Y333491D01*
X439977Y333520D01*
X440073Y333552D01*
X440167Y333589D01*
X440260Y333629D01*
X440352Y333673D01*
X440441Y333720D01*
X440529Y333771D01*
X440615Y333825D01*
X440698Y333882D01*
X440780Y333942D01*
X440858Y334006D01*
X440935Y334072D01*
X441008Y334142D01*
X441079Y334214D01*
X441147Y334289D01*
X441212Y334367D01*
X441274Y334447D01*
X441333Y334529D01*
X441389Y334614D01*
X441441Y334701D01*
X441490Y334789D01*
X441536Y334880D01*
X441577Y334972D01*
X441616Y335066D01*
X441650Y335161D01*
X441681Y335257D01*
X441708Y335355D01*
X441732Y335453D01*
X441751Y335553D01*
X441767Y335653D01*
X441779Y335753D01*
X441787Y335854D01*
X441791Y335955D01*
X441791Y336057D01*
X441787Y336158D01*
X441779Y336259D01*
X441767Y336359D01*
X441751Y336459D01*
X441732Y336559D01*
X441708Y336657D01*
X441681Y336755D01*
X441650Y336851D01*
X441616Y336946D01*
X441577Y337040D01*
X441536Y337132D01*
X441490Y337223D01*
X441441Y337311D01*
X441389Y337398D01*
X441333Y337483D01*
X441274Y337565D01*
X441212Y337645D01*
X441147Y337723D01*
X441079Y337798D01*
X441008Y337870D01*
X440935Y337940D01*
X440858Y338006D01*
X440780Y338070D01*
X440698Y338130D01*
X440615Y338187D01*
X440529Y338241D01*
X440441Y338292D01*
X440352Y338339D01*
X440260Y338383D01*
X440167Y338423D01*
X440073Y338460D01*
X439977Y338492D01*
X439880Y338521D01*
X439782Y338547D01*
X439683Y338568D01*
X439583Y338586D01*
X439483Y338599D01*
X439382Y338609D01*
X439281Y338615D01*
X439180Y338617D01*
X439702Y342793D02*
X436569Y342793D01*
X439702Y342793D02*
X439792Y342791D01*
X439881Y342785D01*
X439971Y342776D01*
X440060Y342762D01*
X440148Y342745D01*
X440235Y342724D01*
X440322Y342699D01*
X440407Y342670D01*
X440491Y342638D01*
X440573Y342603D01*
X440654Y342563D01*
X440733Y342521D01*
X440810Y342475D01*
X440885Y342425D01*
X440958Y342373D01*
X441029Y342317D01*
X441097Y342259D01*
X441162Y342197D01*
X441225Y342133D01*
X441285Y342066D01*
X441342Y341997D01*
X441396Y341925D01*
X441447Y341851D01*
X441495Y341775D01*
X441539Y341697D01*
X441580Y341617D01*
X441618Y341535D01*
X441652Y341452D01*
X441682Y341367D01*
X441709Y341281D01*
X441732Y341195D01*
X441751Y341107D01*
X441766Y341018D01*
X441778Y340929D01*
X441786Y340840D01*
X441790Y340750D01*
X441790Y340660D01*
X441786Y340570D01*
X441778Y340481D01*
X441766Y340392D01*
X441751Y340303D01*
X441732Y340215D01*
X441709Y340129D01*
X441682Y340043D01*
X441652Y339958D01*
X441618Y339875D01*
X441580Y339793D01*
X441539Y339713D01*
X441495Y339635D01*
X441447Y339559D01*
X441396Y339485D01*
X441342Y339413D01*
X441285Y339344D01*
X441225Y339277D01*
X441162Y339213D01*
X441097Y339151D01*
X441029Y339093D01*
X440958Y339037D01*
X440885Y338985D01*
X440810Y338935D01*
X440733Y338889D01*
X440654Y338847D01*
X440573Y338807D01*
X440491Y338772D01*
X440407Y338740D01*
X440322Y338711D01*
X440235Y338686D01*
X440148Y338665D01*
X440060Y338648D01*
X439971Y338634D01*
X439881Y338625D01*
X439792Y338619D01*
X439702Y338617D01*
X439702Y338616D02*
X437613Y338616D01*
X448044Y299187D02*
X448044Y289789D01*
X448044Y299187D02*
X450655Y299187D01*
X450655Y299188D02*
X450756Y299186D01*
X450857Y299180D01*
X450958Y299170D01*
X451058Y299157D01*
X451158Y299139D01*
X451257Y299118D01*
X451355Y299092D01*
X451452Y299063D01*
X451548Y299031D01*
X451642Y298994D01*
X451735Y298954D01*
X451827Y298910D01*
X451916Y298863D01*
X452004Y298812D01*
X452090Y298758D01*
X452173Y298701D01*
X452255Y298641D01*
X452333Y298577D01*
X452410Y298511D01*
X452483Y298441D01*
X452554Y298369D01*
X452622Y298294D01*
X452687Y298216D01*
X452749Y298136D01*
X452808Y298054D01*
X452864Y297969D01*
X452916Y297882D01*
X452965Y297794D01*
X453011Y297703D01*
X453052Y297611D01*
X453091Y297517D01*
X453125Y297422D01*
X453156Y297326D01*
X453183Y297228D01*
X453207Y297130D01*
X453226Y297030D01*
X453242Y296930D01*
X453254Y296830D01*
X453262Y296729D01*
X453266Y296628D01*
X453266Y296526D01*
X453262Y296425D01*
X453254Y296324D01*
X453242Y296224D01*
X453226Y296124D01*
X453207Y296024D01*
X453183Y295926D01*
X453156Y295828D01*
X453125Y295732D01*
X453091Y295637D01*
X453052Y295543D01*
X453011Y295451D01*
X452965Y295360D01*
X452916Y295272D01*
X452864Y295185D01*
X452808Y295100D01*
X452749Y295018D01*
X452687Y294938D01*
X452622Y294860D01*
X452554Y294785D01*
X452483Y294713D01*
X452410Y294643D01*
X452333Y294577D01*
X452255Y294513D01*
X452173Y294453D01*
X452090Y294396D01*
X452004Y294342D01*
X451916Y294291D01*
X451827Y294244D01*
X451735Y294200D01*
X451642Y294160D01*
X451548Y294123D01*
X451452Y294091D01*
X451355Y294062D01*
X451257Y294036D01*
X451158Y294015D01*
X451058Y293997D01*
X450958Y293984D01*
X450857Y293974D01*
X450756Y293968D01*
X450655Y293966D01*
X448044Y293966D01*
X451177Y293966D02*
X453265Y289789D01*
X457131Y297099D02*
X459742Y299187D01*
X459742Y289789D01*
X462352Y289789D02*
X457131Y289789D01*
X403818Y349005D02*
X403818Y358403D01*
X406429Y358403D01*
X406429Y358404D02*
X406530Y358402D01*
X406631Y358396D01*
X406732Y358386D01*
X406832Y358373D01*
X406932Y358355D01*
X407031Y358334D01*
X407129Y358308D01*
X407226Y358279D01*
X407322Y358247D01*
X407416Y358210D01*
X407509Y358170D01*
X407601Y358126D01*
X407690Y358079D01*
X407778Y358028D01*
X407864Y357974D01*
X407947Y357917D01*
X408029Y357857D01*
X408107Y357793D01*
X408184Y357727D01*
X408257Y357657D01*
X408328Y357585D01*
X408396Y357510D01*
X408461Y357432D01*
X408523Y357352D01*
X408582Y357270D01*
X408638Y357185D01*
X408690Y357098D01*
X408739Y357010D01*
X408785Y356919D01*
X408826Y356827D01*
X408865Y356733D01*
X408899Y356638D01*
X408930Y356542D01*
X408957Y356444D01*
X408981Y356346D01*
X409000Y356246D01*
X409016Y356146D01*
X409028Y356046D01*
X409036Y355945D01*
X409040Y355844D01*
X409040Y355742D01*
X409036Y355641D01*
X409028Y355540D01*
X409016Y355440D01*
X409000Y355340D01*
X408981Y355240D01*
X408957Y355142D01*
X408930Y355044D01*
X408899Y354948D01*
X408865Y354853D01*
X408826Y354759D01*
X408785Y354667D01*
X408739Y354576D01*
X408690Y354488D01*
X408638Y354401D01*
X408582Y354316D01*
X408523Y354234D01*
X408461Y354154D01*
X408396Y354076D01*
X408328Y354001D01*
X408257Y353929D01*
X408184Y353859D01*
X408107Y353793D01*
X408029Y353729D01*
X407947Y353669D01*
X407864Y353612D01*
X407778Y353558D01*
X407690Y353507D01*
X407601Y353460D01*
X407509Y353416D01*
X407416Y353376D01*
X407322Y353339D01*
X407226Y353307D01*
X407129Y353278D01*
X407031Y353252D01*
X406932Y353231D01*
X406832Y353213D01*
X406732Y353200D01*
X406631Y353190D01*
X406530Y353184D01*
X406429Y353182D01*
X403818Y353182D01*
X406951Y353182D02*
X409039Y349005D01*
X418127Y356054D02*
X418125Y356149D01*
X418119Y356243D01*
X418110Y356337D01*
X418097Y356431D01*
X418080Y356524D01*
X418059Y356616D01*
X418034Y356708D01*
X418006Y356798D01*
X417974Y356887D01*
X417939Y356975D01*
X417900Y357061D01*
X417858Y357146D01*
X417812Y357229D01*
X417763Y357310D01*
X417711Y357389D01*
X417656Y357466D01*
X417597Y357540D01*
X417536Y357612D01*
X417472Y357682D01*
X417405Y357749D01*
X417335Y357813D01*
X417263Y357874D01*
X417189Y357933D01*
X417112Y357988D01*
X417033Y358040D01*
X416952Y358089D01*
X416869Y358135D01*
X416784Y358177D01*
X416698Y358216D01*
X416610Y358251D01*
X416521Y358283D01*
X416431Y358311D01*
X416339Y358336D01*
X416247Y358357D01*
X416154Y358374D01*
X416060Y358387D01*
X415966Y358396D01*
X415872Y358402D01*
X415777Y358404D01*
X415777Y358403D02*
X415669Y358401D01*
X415560Y358395D01*
X415452Y358385D01*
X415345Y358372D01*
X415238Y358354D01*
X415131Y358333D01*
X415026Y358308D01*
X414921Y358279D01*
X414818Y358247D01*
X414716Y358210D01*
X414615Y358170D01*
X414516Y358127D01*
X414418Y358080D01*
X414322Y358029D01*
X414228Y357975D01*
X414136Y357918D01*
X414046Y357857D01*
X413958Y357793D01*
X413873Y357727D01*
X413790Y357657D01*
X413710Y357584D01*
X413632Y357508D01*
X413557Y357430D01*
X413485Y357349D01*
X413416Y357265D01*
X413350Y357179D01*
X413287Y357091D01*
X413228Y357000D01*
X413171Y356908D01*
X413118Y356813D01*
X413069Y356717D01*
X413023Y356618D01*
X412980Y356519D01*
X412941Y356417D01*
X412906Y356315D01*
X417344Y354226D02*
X417413Y354295D01*
X417479Y354366D01*
X417543Y354439D01*
X417604Y354515D01*
X417662Y354594D01*
X417716Y354674D01*
X417768Y354757D01*
X417816Y354841D01*
X417862Y354927D01*
X417903Y355015D01*
X417942Y355105D01*
X417977Y355196D01*
X418008Y355288D01*
X418036Y355381D01*
X418060Y355475D01*
X418080Y355570D01*
X418097Y355666D01*
X418110Y355763D01*
X418119Y355860D01*
X418125Y355957D01*
X418127Y356054D01*
X417343Y354226D02*
X412905Y349005D01*
X418126Y349005D01*
X393976Y306437D02*
X393976Y297039D01*
X393976Y306437D02*
X396587Y306437D01*
X396587Y306438D02*
X396688Y306436D01*
X396789Y306430D01*
X396890Y306420D01*
X396990Y306407D01*
X397090Y306389D01*
X397189Y306368D01*
X397287Y306342D01*
X397384Y306313D01*
X397480Y306281D01*
X397574Y306244D01*
X397667Y306204D01*
X397759Y306160D01*
X397848Y306113D01*
X397936Y306062D01*
X398022Y306008D01*
X398105Y305951D01*
X398187Y305891D01*
X398265Y305827D01*
X398342Y305761D01*
X398415Y305691D01*
X398486Y305619D01*
X398554Y305544D01*
X398619Y305466D01*
X398681Y305386D01*
X398740Y305304D01*
X398796Y305219D01*
X398848Y305132D01*
X398897Y305044D01*
X398943Y304953D01*
X398984Y304861D01*
X399023Y304767D01*
X399057Y304672D01*
X399088Y304576D01*
X399115Y304478D01*
X399139Y304380D01*
X399158Y304280D01*
X399174Y304180D01*
X399186Y304080D01*
X399194Y303979D01*
X399198Y303878D01*
X399198Y303776D01*
X399194Y303675D01*
X399186Y303574D01*
X399174Y303474D01*
X399158Y303374D01*
X399139Y303274D01*
X399115Y303176D01*
X399088Y303078D01*
X399057Y302982D01*
X399023Y302887D01*
X398984Y302793D01*
X398943Y302701D01*
X398897Y302610D01*
X398848Y302522D01*
X398796Y302435D01*
X398740Y302350D01*
X398681Y302268D01*
X398619Y302188D01*
X398554Y302110D01*
X398486Y302035D01*
X398415Y301963D01*
X398342Y301893D01*
X398265Y301827D01*
X398187Y301763D01*
X398105Y301703D01*
X398022Y301646D01*
X397936Y301592D01*
X397848Y301541D01*
X397759Y301494D01*
X397667Y301450D01*
X397574Y301410D01*
X397480Y301373D01*
X397384Y301341D01*
X397287Y301312D01*
X397189Y301286D01*
X397090Y301265D01*
X396990Y301247D01*
X396890Y301234D01*
X396789Y301224D01*
X396688Y301218D01*
X396587Y301216D01*
X393976Y301216D01*
X397109Y301216D02*
X399197Y297039D01*
X403063Y299128D02*
X405152Y306437D01*
X403063Y299128D02*
X408284Y299128D01*
X406718Y301216D02*
X406718Y297039D01*
X405914Y333577D02*
X405914Y342975D01*
X408525Y342975D01*
X408525Y342976D02*
X408626Y342974D01*
X408727Y342968D01*
X408828Y342958D01*
X408928Y342945D01*
X409028Y342927D01*
X409127Y342906D01*
X409225Y342880D01*
X409322Y342851D01*
X409418Y342819D01*
X409512Y342782D01*
X409605Y342742D01*
X409697Y342698D01*
X409786Y342651D01*
X409874Y342600D01*
X409960Y342546D01*
X410043Y342489D01*
X410125Y342429D01*
X410203Y342365D01*
X410280Y342299D01*
X410353Y342229D01*
X410424Y342157D01*
X410492Y342082D01*
X410557Y342004D01*
X410619Y341924D01*
X410678Y341842D01*
X410734Y341757D01*
X410786Y341670D01*
X410835Y341582D01*
X410881Y341491D01*
X410922Y341399D01*
X410961Y341305D01*
X410995Y341210D01*
X411026Y341114D01*
X411053Y341016D01*
X411077Y340918D01*
X411096Y340818D01*
X411112Y340718D01*
X411124Y340618D01*
X411132Y340517D01*
X411136Y340416D01*
X411136Y340314D01*
X411132Y340213D01*
X411124Y340112D01*
X411112Y340012D01*
X411096Y339912D01*
X411077Y339812D01*
X411053Y339714D01*
X411026Y339616D01*
X410995Y339520D01*
X410961Y339425D01*
X410922Y339331D01*
X410881Y339239D01*
X410835Y339148D01*
X410786Y339060D01*
X410734Y338973D01*
X410678Y338888D01*
X410619Y338806D01*
X410557Y338726D01*
X410492Y338648D01*
X410424Y338573D01*
X410353Y338501D01*
X410280Y338431D01*
X410203Y338365D01*
X410125Y338301D01*
X410043Y338241D01*
X409960Y338184D01*
X409874Y338130D01*
X409786Y338079D01*
X409697Y338032D01*
X409605Y337988D01*
X409512Y337948D01*
X409418Y337911D01*
X409322Y337879D01*
X409225Y337850D01*
X409127Y337824D01*
X409028Y337803D01*
X408928Y337785D01*
X408828Y337772D01*
X408727Y337762D01*
X408626Y337756D01*
X408525Y337754D01*
X405914Y337754D01*
X409047Y337754D02*
X411135Y333577D01*
X415001Y333577D02*
X418134Y333577D01*
X418134Y333578D02*
X418223Y333580D01*
X418311Y333586D01*
X418399Y333595D01*
X418487Y333608D01*
X418574Y333625D01*
X418660Y333645D01*
X418745Y333670D01*
X418830Y333697D01*
X418913Y333729D01*
X418994Y333763D01*
X419074Y333802D01*
X419152Y333843D01*
X419229Y333888D01*
X419303Y333936D01*
X419376Y333987D01*
X419446Y334041D01*
X419513Y334099D01*
X419579Y334159D01*
X419641Y334221D01*
X419701Y334287D01*
X419759Y334354D01*
X419813Y334424D01*
X419864Y334497D01*
X419912Y334571D01*
X419957Y334648D01*
X419998Y334726D01*
X420037Y334806D01*
X420071Y334887D01*
X420103Y334970D01*
X420130Y335055D01*
X420155Y335140D01*
X420175Y335226D01*
X420192Y335313D01*
X420205Y335401D01*
X420214Y335489D01*
X420220Y335577D01*
X420222Y335666D01*
X420222Y336710D01*
X420220Y336799D01*
X420214Y336887D01*
X420205Y336975D01*
X420192Y337063D01*
X420175Y337150D01*
X420155Y337236D01*
X420130Y337321D01*
X420103Y337406D01*
X420071Y337489D01*
X420037Y337570D01*
X419998Y337650D01*
X419957Y337728D01*
X419912Y337805D01*
X419864Y337879D01*
X419813Y337952D01*
X419759Y338022D01*
X419701Y338089D01*
X419641Y338155D01*
X419579Y338217D01*
X419513Y338277D01*
X419446Y338335D01*
X419376Y338389D01*
X419303Y338440D01*
X419229Y338488D01*
X419152Y338533D01*
X419074Y338574D01*
X418994Y338613D01*
X418913Y338647D01*
X418830Y338679D01*
X418745Y338706D01*
X418660Y338731D01*
X418574Y338751D01*
X418487Y338768D01*
X418399Y338781D01*
X418311Y338790D01*
X418223Y338796D01*
X418134Y338798D01*
X415001Y338798D01*
X415001Y342975D01*
X420222Y342975D01*
M02*
