G04 EAGLE Gerber RS-274X export*
G75*
%MOMM*%
%FSLAX34Y34*%
%LPD*%
%INSoldermask Bottom*%
%IPPOS*%
%AMOC8*
5,1,8,0,0,1.08239X$1,22.5*%
G01*
%ADD10C,1.101600*%
%ADD11C,2.701600*%
%ADD12R,2.701600X2.701600*%

G36*
X509929Y329213D02*
X509929Y329213D01*
X510000Y329213D01*
X510027Y329224D01*
X510056Y329227D01*
X510118Y329262D01*
X510183Y329290D01*
X510204Y329310D01*
X510229Y329325D01*
X510292Y329402D01*
X510322Y329432D01*
X510326Y329442D01*
X510335Y329453D01*
X519835Y345953D01*
X519845Y345985D01*
X519854Y345998D01*
X519858Y346022D01*
X519859Y346026D01*
X519890Y346096D01*
X519890Y346120D01*
X519898Y346142D01*
X519892Y346218D01*
X519893Y346295D01*
X519883Y346319D01*
X519882Y346340D01*
X519861Y346379D01*
X519835Y346451D01*
X510335Y362951D01*
X510316Y362973D01*
X510303Y362999D01*
X510250Y363047D01*
X510203Y363100D01*
X510177Y363113D01*
X510156Y363132D01*
X510088Y363155D01*
X510024Y363186D01*
X509995Y363188D01*
X509968Y363197D01*
X509896Y363192D01*
X509825Y363195D01*
X509798Y363185D01*
X509769Y363183D01*
X509679Y363141D01*
X509639Y363126D01*
X509631Y363119D01*
X509618Y363113D01*
X507095Y361371D01*
X507071Y361347D01*
X507033Y361320D01*
X504821Y359196D01*
X504802Y359168D01*
X504768Y359136D01*
X502926Y356685D01*
X502912Y356654D01*
X502883Y356617D01*
X501458Y353902D01*
X501449Y353871D01*
X501433Y353846D01*
X501432Y353838D01*
X501427Y353828D01*
X500456Y350920D01*
X500452Y350886D01*
X500437Y350842D01*
X499945Y347815D01*
X499946Y347781D01*
X499938Y347735D01*
X499938Y344669D01*
X499939Y344665D01*
X499939Y344663D01*
X499945Y344636D01*
X499945Y344589D01*
X500437Y341562D01*
X500449Y341531D01*
X500456Y341484D01*
X501427Y338576D01*
X501444Y338547D01*
X501458Y338502D01*
X502883Y335787D01*
X502905Y335761D01*
X502926Y335719D01*
X504768Y333268D01*
X504793Y333245D01*
X504821Y333208D01*
X507033Y331084D01*
X507061Y331066D01*
X507095Y331033D01*
X509618Y329291D01*
X509645Y329280D01*
X509667Y329261D01*
X509736Y329241D01*
X509801Y329213D01*
X509830Y329213D01*
X509858Y329205D01*
X509929Y329213D01*
G37*
G36*
X182508Y329212D02*
X182508Y329212D01*
X182579Y329209D01*
X182606Y329219D01*
X182635Y329221D01*
X182725Y329263D01*
X182765Y329278D01*
X182773Y329285D01*
X182786Y329291D01*
X185309Y331033D01*
X185333Y331057D01*
X185371Y331084D01*
X187583Y333208D01*
X187602Y333236D01*
X187636Y333268D01*
X189478Y335719D01*
X189492Y335750D01*
X189521Y335787D01*
X190946Y338502D01*
X190955Y338535D01*
X190977Y338576D01*
X191948Y341484D01*
X191952Y341518D01*
X191967Y341562D01*
X192459Y344589D01*
X192458Y344623D01*
X192466Y344669D01*
X192466Y347735D01*
X192459Y347768D01*
X192459Y347815D01*
X191967Y350842D01*
X191955Y350873D01*
X191948Y350920D01*
X190977Y353828D01*
X190964Y353851D01*
X190958Y353876D01*
X190951Y353885D01*
X190946Y353902D01*
X189521Y356617D01*
X189499Y356643D01*
X189478Y356685D01*
X187636Y359136D01*
X187611Y359159D01*
X187583Y359196D01*
X185371Y361320D01*
X185343Y361338D01*
X185309Y361371D01*
X182786Y363113D01*
X182759Y363124D01*
X182737Y363143D01*
X182668Y363163D01*
X182603Y363191D01*
X182574Y363191D01*
X182546Y363199D01*
X182475Y363191D01*
X182404Y363192D01*
X182377Y363180D01*
X182348Y363177D01*
X182286Y363142D01*
X182221Y363114D01*
X182200Y363094D01*
X182175Y363079D01*
X182112Y363002D01*
X182082Y362972D01*
X182078Y362962D01*
X182069Y362951D01*
X172569Y346451D01*
X172545Y346378D01*
X172514Y346308D01*
X172514Y346284D01*
X172506Y346262D01*
X172513Y346186D01*
X172512Y346109D01*
X172521Y346085D01*
X172522Y346064D01*
X172543Y346025D01*
X172562Y345973D01*
X172563Y345967D01*
X172565Y345965D01*
X172569Y345953D01*
X182069Y329453D01*
X182088Y329431D01*
X182101Y329405D01*
X182154Y329357D01*
X182201Y329304D01*
X182227Y329291D01*
X182249Y329272D01*
X182316Y329249D01*
X182380Y329218D01*
X182409Y329217D01*
X182436Y329207D01*
X182508Y329212D01*
G37*
G36*
X432878Y195718D02*
X432878Y195718D01*
X432956Y195727D01*
X432975Y195738D01*
X432997Y195742D01*
X433061Y195786D01*
X433129Y195825D01*
X433145Y195844D01*
X433161Y195855D01*
X433185Y195893D01*
X433235Y195953D01*
X442735Y212453D01*
X442744Y212480D01*
X442760Y212504D01*
X442775Y212574D01*
X442798Y212642D01*
X442795Y212670D01*
X442801Y212698D01*
X442788Y212769D01*
X442782Y212840D01*
X442769Y212865D01*
X442763Y212893D01*
X442723Y212953D01*
X442690Y213016D01*
X442668Y213034D01*
X442652Y213058D01*
X442569Y213116D01*
X442537Y213143D01*
X442526Y213146D01*
X442516Y213153D01*
X439750Y214462D01*
X439717Y214470D01*
X439674Y214490D01*
X436734Y215338D01*
X436700Y215341D01*
X436656Y215354D01*
X433618Y215719D01*
X433584Y215716D01*
X433537Y215722D01*
X430480Y215595D01*
X430447Y215587D01*
X430400Y215586D01*
X427403Y214970D01*
X427372Y214957D01*
X427326Y214948D01*
X424466Y213859D01*
X424438Y213841D01*
X424394Y213825D01*
X421746Y212291D01*
X421720Y212269D01*
X421680Y212246D01*
X419312Y210308D01*
X419290Y210281D01*
X419254Y210252D01*
X417227Y207959D01*
X417211Y207930D01*
X417179Y207895D01*
X415547Y205307D01*
X415535Y205275D01*
X415510Y205236D01*
X414314Y202419D01*
X414307Y202386D01*
X414304Y202379D01*
X414300Y202373D01*
X414299Y202367D01*
X414288Y202343D01*
X413560Y199371D01*
X413558Y199337D01*
X413547Y199292D01*
X413304Y196242D01*
X413308Y196213D01*
X413303Y196185D01*
X413320Y196116D01*
X413328Y196044D01*
X413343Y196020D01*
X413349Y195992D01*
X413392Y195934D01*
X413428Y195872D01*
X413450Y195855D01*
X413467Y195832D01*
X413529Y195795D01*
X413586Y195752D01*
X413614Y195745D01*
X413638Y195730D01*
X413738Y195714D01*
X413779Y195703D01*
X413789Y195705D01*
X413802Y195703D01*
X432802Y195703D01*
X432878Y195718D01*
G37*
G36*
X433571Y476687D02*
X433571Y476687D01*
X433618Y476685D01*
X436656Y477050D01*
X436688Y477061D01*
X436734Y477066D01*
X439674Y477914D01*
X439704Y477930D01*
X439750Y477942D01*
X442516Y479251D01*
X442538Y479268D01*
X442565Y479278D01*
X442617Y479327D01*
X442675Y479370D01*
X442689Y479395D01*
X442710Y479414D01*
X442739Y479480D01*
X442775Y479542D01*
X442778Y479570D01*
X442790Y479596D01*
X442791Y479668D01*
X442800Y479739D01*
X442792Y479766D01*
X442793Y479795D01*
X442757Y479890D01*
X442746Y479930D01*
X442739Y479939D01*
X442735Y479951D01*
X433235Y496451D01*
X433183Y496510D01*
X433137Y496572D01*
X433118Y496583D01*
X433103Y496600D01*
X433033Y496634D01*
X432966Y496674D01*
X432942Y496678D01*
X432924Y496686D01*
X432879Y496688D01*
X432802Y496701D01*
X413802Y496701D01*
X413774Y496696D01*
X413746Y496698D01*
X413678Y496676D01*
X413607Y496662D01*
X413584Y496646D01*
X413557Y496637D01*
X413502Y496590D01*
X413443Y496549D01*
X413428Y496525D01*
X413407Y496507D01*
X413375Y496442D01*
X413336Y496382D01*
X413331Y496354D01*
X413319Y496328D01*
X413310Y496227D01*
X413303Y496185D01*
X413305Y496175D01*
X413304Y496162D01*
X413547Y493112D01*
X413556Y493080D01*
X413560Y493033D01*
X414288Y490061D01*
X414303Y490030D01*
X414314Y489985D01*
X415510Y487168D01*
X415529Y487140D01*
X415547Y487097D01*
X417179Y484509D01*
X417203Y484485D01*
X417227Y484445D01*
X419254Y482152D01*
X419281Y482132D01*
X419312Y482096D01*
X421680Y480158D01*
X421710Y480142D01*
X421746Y480113D01*
X424394Y478580D01*
X424426Y478569D01*
X424466Y478545D01*
X427326Y477457D01*
X427359Y477451D01*
X427403Y477434D01*
X430400Y476818D01*
X430434Y476818D01*
X430480Y476809D01*
X433537Y476682D01*
X433571Y476687D01*
G37*
G36*
X278630Y195708D02*
X278630Y195708D01*
X278658Y195706D01*
X278726Y195728D01*
X278797Y195742D01*
X278820Y195758D01*
X278847Y195767D01*
X278902Y195814D01*
X278961Y195855D01*
X278976Y195879D01*
X278998Y195897D01*
X279029Y195962D01*
X279068Y196022D01*
X279073Y196050D01*
X279085Y196076D01*
X279094Y196177D01*
X279101Y196219D01*
X279099Y196229D01*
X279100Y196242D01*
X278857Y199292D01*
X278848Y199324D01*
X278844Y199371D01*
X278116Y202343D01*
X278101Y202374D01*
X278090Y202419D01*
X276894Y205236D01*
X276875Y205264D01*
X276857Y205307D01*
X275225Y207895D01*
X275201Y207919D01*
X275177Y207959D01*
X273150Y210252D01*
X273123Y210272D01*
X273092Y210308D01*
X270725Y212246D01*
X270694Y212262D01*
X270658Y212291D01*
X268010Y213825D01*
X267978Y213835D01*
X267938Y213859D01*
X265078Y214948D01*
X265045Y214953D01*
X265001Y214970D01*
X262004Y215586D01*
X261970Y215586D01*
X261924Y215595D01*
X258867Y215722D01*
X258833Y215717D01*
X258786Y215719D01*
X255748Y215354D01*
X255716Y215343D01*
X255670Y215338D01*
X252730Y214490D01*
X252700Y214474D01*
X252655Y214462D01*
X249889Y213153D01*
X249866Y213136D01*
X249839Y213126D01*
X249787Y213077D01*
X249729Y213034D01*
X249715Y213009D01*
X249694Y212990D01*
X249665Y212924D01*
X249629Y212862D01*
X249626Y212834D01*
X249614Y212808D01*
X249613Y212736D01*
X249604Y212665D01*
X249612Y212638D01*
X249612Y212609D01*
X249647Y212514D01*
X249658Y212474D01*
X249665Y212465D01*
X249669Y212453D01*
X259169Y195953D01*
X259221Y195895D01*
X259267Y195832D01*
X259286Y195821D01*
X259301Y195804D01*
X259371Y195770D01*
X259438Y195730D01*
X259463Y195726D01*
X259480Y195718D01*
X259525Y195716D01*
X259602Y195703D01*
X278602Y195703D01*
X278630Y195708D01*
G37*
G36*
X261924Y476809D02*
X261924Y476809D01*
X261957Y476817D01*
X262004Y476818D01*
X265001Y477434D01*
X265032Y477447D01*
X265078Y477457D01*
X267938Y478545D01*
X267967Y478563D01*
X268010Y478580D01*
X270658Y480113D01*
X270684Y480135D01*
X270725Y480158D01*
X273092Y482096D01*
X273114Y482123D01*
X273150Y482152D01*
X275177Y484445D01*
X275194Y484474D01*
X275225Y484509D01*
X276857Y487097D01*
X276869Y487129D01*
X276894Y487168D01*
X278090Y489985D01*
X278097Y490018D01*
X278116Y490061D01*
X278844Y493033D01*
X278846Y493067D01*
X278857Y493112D01*
X279100Y496162D01*
X279096Y496191D01*
X279101Y496219D01*
X279084Y496288D01*
X279076Y496360D01*
X279062Y496384D01*
X279055Y496412D01*
X279012Y496470D01*
X278977Y496532D01*
X278954Y496549D01*
X278937Y496572D01*
X278875Y496609D01*
X278818Y496652D01*
X278790Y496659D01*
X278766Y496674D01*
X278666Y496690D01*
X278625Y496701D01*
X278615Y496699D01*
X278602Y496701D01*
X259602Y496701D01*
X259526Y496686D01*
X259448Y496677D01*
X259429Y496666D01*
X259407Y496662D01*
X259343Y496618D01*
X259275Y496579D01*
X259259Y496560D01*
X259243Y496549D01*
X259219Y496511D01*
X259169Y496451D01*
X249669Y479951D01*
X249660Y479924D01*
X249644Y479900D01*
X249629Y479830D01*
X249606Y479762D01*
X249609Y479734D01*
X249603Y479706D01*
X249617Y479636D01*
X249622Y479564D01*
X249635Y479539D01*
X249641Y479511D01*
X249681Y479451D01*
X249714Y479388D01*
X249736Y479370D01*
X249752Y479346D01*
X249835Y479288D01*
X249867Y479261D01*
X249878Y479258D01*
X249889Y479251D01*
X252655Y477942D01*
X252688Y477934D01*
X252730Y477914D01*
X255670Y477066D01*
X255704Y477063D01*
X255748Y477050D01*
X258786Y476685D01*
X258820Y476688D01*
X258867Y476682D01*
X261924Y476809D01*
G37*
D10*
X428802Y489302D03*
X511402Y346202D03*
X428802Y203102D03*
X263602Y203102D03*
X181002Y346202D03*
X263602Y489302D03*
D11*
X319600Y448500D03*
D12*
X370400Y448500D03*
M02*
